<?xml version="1.0"?><VTKFile type="UnstructuredGrid" version="1.0" byte_order="LittleEndian"><UnstructuredGrid><Piece NumberOfPoints="350" NumberOfCells="1296"><Points><DataArray type="Float64" Name="Points" NumberOfComponents="3" format="ascii">-2000 -2000 0 -1020.0 -2000 0 -1000 -2000 0 0 -2000 0 1000 -2000 0 1020.0 -2000 0 2000 -2000 0 -2000 -80.0 0 -1020.0 -80.0 0 -1000 -80.0 0 0 -80.0 0 1000 -80.0 0 1020.0 -80.0 0 2000 -80.0 0 -2000 0 0 -1020.0 0 0 -1000 0 0 0 0 0 1000 0 0 1020.0 0 0 2000 0 0 -2000 80.0 0 -1020.0 80.0 0 -1000 80.0 0 0 80.0 0 1000 80.0 0 1020.0 80.0 0 2000 80.0 0 -2000 2000 0 -1020.0 2000 0 -1000 2000 0 0 2000 0 1000 2000 0 1020.0 2000 0 2000 2000 0 -2000 -2000 200.0 -1020.0 -2000 200.0 -1000 -2000 200.0 0 -2000 200.0 1000 -2000 200.0 1020.0 -2000 200.0 2000 -2000 200.0 -2000 -80.0 200.0 -1020.0 -80.0 200.0 -1000 -80.0 200.0 0 -80.0 200.0 1000 -80.0 200.0 1020.0 -80.0 200.0 2000 -80.0 200.0 -2000 0 200.0 -1020.0 0 200.0 -1000 0 200.0 0 0 200.0 1000 0 200.0 1020.0 0 200.0 2000 0 200.0 -2000 80.0 200.0 -1020.0 80.0 200.0 -1000 80.0 200.0 0 80.0 200.0 1000 80.0 200.0 1020.0 80.0 200.0 2000 80.0 200.0 -2000 2000 200.0 -1020.0 2000 200.0 -1000 2000 200.0 0 2000 200.0 1000 2000 200.0 1020.0 2000 200.0 2000 2000 200.0 -2000 -2000 500.0 -1020.0 -2000 500.0 -1000 -2000 500.0 0 -2000 500.0 1000 -2000 500.0 1020.0 -2000 500.0 2000 -2000 500.0 -2000 -80.0 500.0 -1020.0 -80.0 500.0 -1000 -80.0 500.0 0 -80.0 500.0 1000 -80.0 500.0 1020.0 -80.0 500.0 2000 -80.0 500.0 -2000 0 500.0 -1020.0 0 500.0 -1000 0 500.0 0 0 500.0 1000 0 500.0 1020.0 0 500.0 2000 0 500.0 -2000 80.0 500.0 -1020.0 80.0 500.0 -1000 80.0 500.0 0 80.0 500.0 1000 80.0 500.0 1020.0 80.0 500.0 2000 80.0 500.0 -2000 2000 500.0 -1020.0 2000 500.0 -1000 2000 500.0 0 2000 500.0 1000 2000 500.0 1020.0 2000 500.0 2000 2000 500.0 -2000 -2000 520.0 -1020.0 -2000 520.0 -1000 -2000 520.0 0 -2000 520.0 1000 -2000 520.0 1020.0 -2000 520.0 2000 -2000 520.0 -2000 -80.0 520.0 -1020.0 -80.0 520.0 -1000 -80.0 520.0 0 -80.0 520.0 1000 -80.0 520.0 1020.0 -80.0 520.0 2000 -80.0 520.0 -2000 0 520.0 -1020.0 0 520.0 -1000 0 520.0 0 0 520.0 1000 0 520.0 1020.0 0 520.0 2000 0 520.0 -2000 80.0 520.0 -1020.0 80.0 520.0 -1000 80.0 520.0 0 80.0 520.0 1000 80.0 520.0 1020.0 80.0 520.0 2000 80.0 520.0 -2000 2000 520.0 -1020.0 2000 520.0 -1000 2000 520.0 0 2000 520.0 1000 2000 520.0 1020.0 2000 520.0 2000 2000 520.0 -2000 -2000 580.0 -1020.0 -2000 580.0 -1000 -2000 580.0 0 -2000 580.0 1000 -2000 580.0 1020.0 -2000 580.0 2000 -2000 580.0 -2000 -80.0 580.0 -1020.0 -80.0 580.0 -1000 -80.0 580.0 0 -80.0 580.0 1000 -80.0 580.0 1020.0 -80.0 580.0 2000 -80.0 580.0 -2000 0 580.0 -1020.0 0 580.0 -1000 0 580.0 0 0 580.0 1000 0 580.0 1020.0 0 580.0 2000 0 580.0 -2000 80.0 580.0 -1020.0 80.0 580.0 -1000 80.0 580.0 0 80.0 580.0 1000 80.0 580.0 1020.0 80.0 580.0 2000 80.0 580.0 -2000 2000 580.0 -1020.0 2000 580.0 -1000 2000 580.0 0 2000 580.0 1000 2000 580.0 1020.0 2000 580.0 2000 2000 580.0 -2000 -2000 1000 -1020.0 -2000 1000 -1000 -2000 1000 0 -2000 1000 1000 -2000 1000 1020.0 -2000 1000 2000 -2000 1000 -2000 -80.0 1000 -1020.0 -80.0 1000 -1000 -80.0 1000 0 -80.0 1000 1000 -80.0 1000 1020.0 -80.0 1000 2000 -80.0 1000 -2000 0 1000 -1020.0 0 1000 -1000 0 1000 0 0 1000 1000 0 1000 1020.0 0 1000 2000 0 1000 -2000 80.0 1000 -1020.0 80.0 1000 -1000 80.0 1000 0 80.0 1000 1000 80.0 1000 1020.0 80.0 1000 2000 80.0 1000 -2000 2000 1000 -1020.0 2000 1000 -1000 2000 1000 0 2000 1000 1000 2000 1000 1020.0 2000 1000 2000 2000 1000 -2000 -2000 1200.0 -1020.0 -2000 1200.0 -1000 -2000 1200.0 0 -2000 1200.0 1000 -2000 1200.0 1020.0 -2000 1200.0 2000 -2000 1200.0 -2000 -80.0 1200.0 -1020.0 -80.0 1200.0 -1000 -80.0 1200.0 0 -80.0 1200.0 1000 -80.0 1200.0 1020.0 -80.0 1200.0 2000 -80.0 1200.0 -2000 0 1200.0 -1020.0 0 1200.0 -1000 0 1200.0 0 0 1200.0 1000 0 1200.0 1020.0 0 1200.0 2000 0 1200.0 -2000 80.0 1200.0 -1020.0 80.0 1200.0 -1000 80.0 1200.0 0 80.0 1200.0 1000 80.0 1200.0 1020.0 80.0 1200.0 2000 80.0 1200.0 -2000 2000 1200.0 -1020.0 2000 1200.0 -1000 2000 1200.0 0 2000 1200.0 1000 2000 1200.0 1020.0 2000 1200.0 2000 2000 1200.0 -2000 -2000 1280.0 -1020.0 -2000 1280.0 -1000 -2000 1280.0 0 -2000 1280.0 1000 -2000 1280.0 1020.0 -2000 1280.0 2000 -2000 1280.0 -2000 -80.0 1280.0 -1020.0 -80.0 1280.0 -1000 -80.0 1280.0 0 -80.0 1280.0 1000 -80.0 1280.0 1020.0 -80.0 1280.0 2000 -80.0 1280.0 -2000 0 1280.0 -1020.0 0 1280.0 -1000 0 1280.0 0 0 1280.0 1000 0 1280.0 1020.0 0 1280.0 2000 0 1280.0 -2000 80.0 1280.0 -1020.0 80.0 1280.0 -1000 80.0 1280.0 0 80.0 1280.0 1000 80.0 1280.0 1020.0 80.0 1280.0 2000 80.0 1280.0 -2000 2000 1280.0 -1020.0 2000 1280.0 -1000 2000 1280.0 0 2000 1280.0 1000 2000 1280.0 1020.0 2000 1280.0 2000 2000 1280.0 -2000 -2000 1580.0 -1020.0 -2000 1580.0 -1000 -2000 1580.0 0 -2000 1580.0 1000 -2000 1580.0 1020.0 -2000 1580.0 2000 -2000 1580.0 -2000 -80.0 1580.0 -1020.0 -80.0 1580.0 -1000 -80.0 1580.0 0 -80.0 1580.0 1000 -80.0 1580.0 1020.0 -80.0 1580.0 2000 -80.0 1580.0 -2000 0 1580.0 -1020.0 0 1580.0 -1000 0 1580.0 0 0 1580.0 1000 0 1580.0 1020.0 0 1580.0 2000 0 1580.0 -2000 80.0 1580.0 -1020.0 80.0 1580.0 -1000 80.0 1580.0 0 80.0 1580.0 1000 80.0 1580.0 1020.0 80.0 1580.0 2000 80.0 1580.0 -2000 2000 1580.0 -1020.0 2000 1580.0 -1000 2000 1580.0 0 2000 1580.0 1000 2000 1580.0 1020.0 2000 1580.0 2000 2000 1580.0 -2000 -2000 2000 -1020.0 -2000 2000 -1000 -2000 2000 0 -2000 2000 1000 -2000 2000 1020.0 -2000 2000 2000 -2000 2000 -2000 -80.0 2000 -1020.0 -80.0 2000 -1000 -80.0 2000 0 -80.0 2000 1000 -80.0 2000 1020.0 -80.0 2000 2000 -80.0 2000 -2000 0 2000 -1020.0 0 2000 -1000 0 2000 0 0 2000 1000 0 2000 1020.0 0 2000 2000 0 2000 -2000 80.0 2000 -1020.0 80.0 2000 -1000 80.0 2000 0 80.0 2000 1000 80.0 2000 1020.0 80.0 2000 2000 80.0 2000 -2000 2000 2000 -1020.0 2000 2000 -1000 2000 2000 0 2000 2000 1000 2000 2000 1020.0 2000 2000 2000 2000 2000</DataArray></Points><Cells><DataArray type="Int32" Name="connectivity" NumberOfComponents="1" format="ascii">0 1 8 43 0 8 7 43 0 7 42 43 0 42 35 43 0 35 36 43 0 36 1 43 1 2 9 44 1 9 8 44 1 8 43 44 1 43 36 44 1 36 37 44 1 37 2 44 2 3 10 45 2 10 9 45 2 9 44 45 2 44 37 45 2 37 38 45 2 38 3 45 3 4 11 46 3 11 10 46 3 10 45 46 3 45 38 46 3 38 39 46 3 39 4 46 4 5 12 47 4 12 11 47 4 11 46 47 4 46 39 47 4 39 40 47 4 40 5 47 5 6 13 48 5 13 12 48 5 12 47 48 5 47 40 48 5 40 41 48 5 41 6 48 7 8 15 50 7 15 14 50 7 14 49 50 7 49 42 50 7 42 43 50 7 43 8 50 8 9 16 51 8 16 15 51 8 15 50 51 8 50 43 51 8 43 44 51 8 44 9 51 9 10 17 52 9 17 16 52 9 16 51 52 9 51 44 52 9 44 45 52 9 45 10 52 10 11 18 53 10 18 17 53 10 17 52 53 10 52 45 53 10 45 46 53 10 46 11 53 11 12 19 54 11 19 18 54 11 18 53 54 11 53 46 54 11 46 47 54 11 47 12 54 12 13 20 55 12 20 19 55 12 19 54 55 12 54 47 55 12 47 48 55 12 48 13 55 14 15 22 57 14 22 21 57 14 21 56 57 14 56 49 57 14 49 50 57 14 50 15 57 15 16 23 58 15 23 22 58 15 22 57 58 15 57 50 58 15 50 51 58 15 51 16 58 16 17 24 59 16 24 23 59 16 23 58 59 16 58 51 59 16 51 52 59 16 52 17 59 17 18 25 60 17 25 24 60 17 24 59 60 17 59 52 60 17 52 53 60 17 53 18 60 18 19 26 61 18 26 25 61 18 25 60 61 18 60 53 61 18 53 54 61 18 54 19 61 19 20 27 62 19 27 26 62 19 26 61 62 19 61 54 62 19 54 55 62 19 55 20 62 21 22 29 64 21 29 28 64 21 28 63 64 21 63 56 64 21 56 57 64 21 57 22 64 22 23 30 65 22 30 29 65 22 29 64 65 22 64 57 65 22 57 58 65 22 58 23 65 23 24 31 66 23 31 30 66 23 30 65 66 23 65 58 66 23 58 59 66 23 59 24 66 24 25 32 67 24 32 31 67 24 31 66 67 24 66 59 67 24 59 60 67 24 60 25 67 25 26 33 68 25 33 32 68 25 32 67 68 25 67 60 68 25 60 61 68 25 61 26 68 26 27 34 69 26 34 33 69 26 33 68 69 26 68 61 69 26 61 62 69 26 62 27 69 35 36 43 78 35 43 42 78 35 42 77 78 35 77 70 78 35 70 71 78 35 71 36 78 36 37 44 79 36 44 43 79 36 43 78 79 36 78 71 79 36 71 72 79 36 72 37 79 37 38 45 80 37 45 44 80 37 44 79 80 37 79 72 80 37 72 73 80 37 73 38 80 38 39 46 81 38 46 45 81 38 45 80 81 38 80 73 81 38 73 74 81 38 74 39 81 39 40 47 82 39 47 46 82 39 46 81 82 39 81 74 82 39 74 75 82 39 75 40 82 40 41 48 83 40 48 47 83 40 47 82 83 40 82 75 83 40 75 76 83 40 76 41 83 42 43 50 85 42 50 49 85 42 49 84 85 42 84 77 85 42 77 78 85 42 78 43 85 43 44 51 86 43 51 50 86 43 50 85 86 43 85 78 86 43 78 79 86 43 79 44 86 44 45 52 87 44 52 51 87 44 51 86 87 44 86 79 87 44 79 80 87 44 80 45 87 45 46 53 88 45 53 52 88 45 52 87 88 45 87 80 88 45 80 81 88 45 81 46 88 46 47 54 89 46 54 53 89 46 53 88 89 46 88 81 89 46 81 82 89 46 82 47 89 47 48 55 90 47 55 54 90 47 54 89 90 47 89 82 90 47 82 83 90 47 83 48 90 49 50 57 92 49 57 56 92 49 56 91 92 49 91 84 92 49 84 85 92 49 85 50 92 50 51 58 93 50 58 57 93 50 57 92 93 50 92 85 93 50 85 86 93 50 86 51 93 51 52 59 94 51 59 58 94 51 58 93 94 51 93 86 94 51 86 87 94 51 87 52 94 52 53 60 95 52 60 59 95 52 59 94 95 52 94 87 95 52 87 88 95 52 88 53 95 53 54 61 96 53 61 60 96 53 60 95 96 53 95 88 96 53 88 89 96 53 89 54 96 54 55 62 97 54 62 61 97 54 61 96 97 54 96 89 97 54 89 90 97 54 90 55 97 56 57 64 99 56 64 63 99 56 63 98 99 56 98 91 99 56 91 92 99 56 92 57 99 57 58 65 100 57 65 64 100 57 64 99 100 57 99 92 100 57 92 93 100 57 93 58 100 58 59 66 101 58 66 65 101 58 65 100 101 58 100 93 101 58 93 94 101 58 94 59 101 59 60 67 102 59 67 66 102 59 66 101 102 59 101 94 102 59 94 95 102 59 95 60 102 60 61 68 103 60 68 67 103 60 67 102 103 60 102 95 103 60 95 96 103 60 96 61 103 61 62 69 104 61 69 68 104 61 68 103 104 61 103 96 104 61 96 97 104 61 97 62 104 70 71 78 113 70 78 77 113 70 77 112 113 70 112 105 113 70 105 106 113 70 106 71 113 71 72 79 114 71 79 78 114 71 78 113 114 71 113 106 114 71 106 107 114 71 107 72 114 72 73 80 115 72 80 79 115 72 79 114 115 72 114 107 115 72 107 108 115 72 108 73 115 73 74 81 116 73 81 80 116 73 80 115 116 73 115 108 116 73 108 109 116 73 109 74 116 74 75 82 117 74 82 81 117 74 81 116 117 74 116 109 117 74 109 110 117 74 110 75 117 75 76 83 118 75 83 82 118 75 82 117 118 75 117 110 118 75 110 111 118 75 111 76 118 77 78 85 120 77 85 84 120 77 84 119 120 77 119 112 120 77 112 113 120 77 113 78 120 78 79 86 121 78 86 85 121 78 85 120 121 78 120 113 121 78 113 114 121 78 114 79 121 79 80 87 122 79 87 86 122 79 86 121 122 79 121 114 122 79 114 115 122 79 115 80 122 80 81 88 123 80 88 87 123 80 87 122 123 80 122 115 123 80 115 116 123 80 116 81 123 81 82 89 124 81 89 88 124 81 88 123 124 81 123 116 124 81 116 117 124 81 117 82 124 82 83 90 125 82 90 89 125 82 89 124 125 82 124 117 125 82 117 118 125 82 118 83 125 84 85 92 127 84 92 91 127 84 91 126 127 84 126 119 127 84 119 120 127 84 120 85 127 85 86 93 128 85 93 92 128 85 92 127 128 85 127 120 128 85 120 121 128 85 121 86 128 86 87 94 129 86 94 93 129 86 93 128 129 86 128 121 129 86 121 122 129 86 122 87 129 87 88 95 130 87 95 94 130 87 94 129 130 87 129 122 130 87 122 123 130 87 123 88 130 88 89 96 131 88 96 95 131 88 95 130 131 88 130 123 131 88 123 124 131 88 124 89 131 89 90 97 132 89 97 96 132 89 96 131 132 89 131 124 132 89 124 125 132 89 125 90 132 91 92 99 134 91 99 98 134 91 98 133 134 91 133 126 134 91 126 127 134 91 127 92 134 92 93 100 135 92 100 99 135 92 99 134 135 92 134 127 135 92 127 128 135 92 128 93 135 93 94 101 136 93 101 100 136 93 100 135 136 93 135 128 136 93 128 129 136 93 129 94 136 94 95 102 137 94 102 101 137 94 101 136 137 94 136 129 137 94 129 130 137 94 130 95 137 95 96 103 138 95 103 102 138 95 102 137 138 95 137 130 138 95 130 131 138 95 131 96 138 96 97 104 139 96 104 103 139 96 103 138 139 96 138 131 139 96 131 132 139 96 132 97 139 105 106 113 148 105 113 112 148 105 112 147 148 105 147 140 148 105 140 141 148 105 141 106 148 106 107 114 149 106 114 113 149 106 113 148 149 106 148 141 149 106 141 142 149 106 142 107 149 107 108 115 150 107 115 114 150 107 114 149 150 107 149 142 150 107 142 143 150 107 143 108 150 108 109 116 151 108 116 115 151 108 115 150 151 108 150 143 151 108 143 144 151 108 144 109 151 109 110 117 152 109 117 116 152 109 116 151 152 109 151 144 152 109 144 145 152 109 145 110 152 110 111 118 153 110 118 117 153 110 117 152 153 110 152 145 153 110 145 146 153 110 146 111 153 112 113 120 155 112 120 119 155 112 119 154 155 112 154 147 155 112 147 148 155 112 148 113 155 113 114 121 156 113 121 120 156 113 120 155 156 113 155 148 156 113 148 149 156 113 149 114 156 114 115 122 157 114 122 121 157 114 121 156 157 114 156 149 157 114 149 150 157 114 150 115 157 115 116 123 158 115 123 122 158 115 122 157 158 115 157 150 158 115 150 151 158 115 151 116 158 116 117 124 159 116 124 123 159 116 123 158 159 116 158 151 159 116 151 152 159 116 152 117 159 117 118 125 160 117 125 124 160 117 124 159 160 117 159 152 160 117 152 153 160 117 153 118 160 119 120 127 162 119 127 126 162 119 126 161 162 119 161 154 162 119 154 155 162 119 155 120 162 120 121 128 163 120 128 127 163 120 127 162 163 120 162 155 163 120 155 156 163 120 156 121 163 121 122 129 164 121 129 128 164 121 128 163 164 121 163 156 164 121 156 157 164 121 157 122 164 122 123 130 165 122 130 129 165 122 129 164 165 122 164 157 165 122 157 158 165 122 158 123 165 123 124 131 166 123 131 130 166 123 130 165 166 123 165 158 166 123 158 159 166 123 159 124 166 124 125 132 167 124 132 131 167 124 131 166 167 124 166 159 167 124 159 160 167 124 160 125 167 126 127 134 169 126 134 133 169 126 133 168 169 126 168 161 169 126 161 162 169 126 162 127 169 127 128 135 170 127 135 134 170 127 134 169 170 127 169 162 170 127 162 163 170 127 163 128 170 128 129 136 171 128 136 135 171 128 135 170 171 128 170 163 171 128 163 164 171 128 164 129 171 129 130 137 172 129 137 136 172 129 136 171 172 129 171 164 172 129 164 165 172 129 165 130 172 130 131 138 173 130 138 137 173 130 137 172 173 130 172 165 173 130 165 166 173 130 166 131 173 131 132 139 174 131 139 138 174 131 138 173 174 131 173 166 174 131 166 167 174 131 167 132 174 140 141 148 183 140 148 147 183 140 147 182 183 140 182 175 183 140 175 176 183 140 176 141 183 141 142 149 184 141 149 148 184 141 148 183 184 141 183 176 184 141 176 177 184 141 177 142 184 142 143 150 185 142 150 149 185 142 149 184 185 142 184 177 185 142 177 178 185 142 178 143 185 143 144 151 186 143 151 150 186 143 150 185 186 143 185 178 186 143 178 179 186 143 179 144 186 144 145 152 187 144 152 151 187 144 151 186 187 144 186 179 187 144 179 180 187 144 180 145 187 145 146 153 188 145 153 152 188 145 152 187 188 145 187 180 188 145 180 181 188 145 181 146 188 147 148 155 190 147 155 154 190 147 154 189 190 147 189 182 190 147 182 183 190 147 183 148 190 148 149 156 191 148 156 155 191 148 155 190 191 148 190 183 191 148 183 184 191 148 184 149 191 149 150 157 192 149 157 156 192 149 156 191 192 149 191 184 192 149 184 185 192 149 185 150 192 150 151 158 193 150 158 157 193 150 157 192 193 150 192 185 193 150 185 186 193 150 186 151 193 151 152 159 194 151 159 158 194 151 158 193 194 151 193 186 194 151 186 187 194 151 187 152 194 152 153 160 195 152 160 159 195 152 159 194 195 152 194 187 195 152 187 188 195 152 188 153 195 154 155 162 197 154 162 161 197 154 161 196 197 154 196 189 197 154 189 190 197 154 190 155 197 155 156 163 198 155 163 162 198 155 162 197 198 155 197 190 198 155 190 191 198 155 191 156 198 156 157 164 199 156 164 163 199 156 163 198 199 156 198 191 199 156 191 192 199 156 192 157 199 157 158 165 200 157 165 164 200 157 164 199 200 157 199 192 200 157 192 193 200 157 193 158 200 158 159 166 201 158 166 165 201 158 165 200 201 158 200 193 201 158 193 194 201 158 194 159 201 159 160 167 202 159 167 166 202 159 166 201 202 159 201 194 202 159 194 195 202 159 195 160 202 161 162 169 204 161 169 168 204 161 168 203 204 161 203 196 204 161 196 197 204 161 197 162 204 162 163 170 205 162 170 169 205 162 169 204 205 162 204 197 205 162 197 198 205 162 198 163 205 163 164 171 206 163 171 170 206 163 170 205 206 163 205 198 206 163 198 199 206 163 199 164 206 164 165 172 207 164 172 171 207 164 171 206 207 164 206 199 207 164 199 200 207 164 200 165 207 165 166 173 208 165 173 172 208 165 172 207 208 165 207 200 208 165 200 201 208 165 201 166 208 166 167 174 209 166 174 173 209 166 173 208 209 166 208 201 209 166 201 202 209 166 202 167 209 175 176 183 218 175 183 182 218 175 182 217 218 175 217 210 218 175 210 211 218 175 211 176 218 176 177 184 219 176 184 183 219 176 183 218 219 176 218 211 219 176 211 212 219 176 212 177 219 177 178 185 220 177 185 184 220 177 184 219 220 177 219 212 220 177 212 213 220 177 213 178 220 178 179 186 221 178 186 185 221 178 185 220 221 178 220 213 221 178 213 214 221 178 214 179 221 179 180 187 222 179 187 186 222 179 186 221 222 179 221 214 222 179 214 215 222 179 215 180 222 180 181 188 223 180 188 187 223 180 187 222 223 180 222 215 223 180 215 216 223 180 216 181 223 182 183 190 225 182 190 189 225 182 189 224 225 182 224 217 225 182 217 218 225 182 218 183 225 183 184 191 226 183 191 190 226 183 190 225 226 183 225 218 226 183 218 219 226 183 219 184 226 184 185 192 227 184 192 191 227 184 191 226 227 184 226 219 227 184 219 220 227 184 220 185 227 185 186 193 228 185 193 192 228 185 192 227 228 185 227 220 228 185 220 221 228 185 221 186 228 186 187 194 229 186 194 193 229 186 193 228 229 186 228 221 229 186 221 222 229 186 222 187 229 187 188 195 230 187 195 194 230 187 194 229 230 187 229 222 230 187 222 223 230 187 223 188 230 189 190 197 232 189 197 196 232 189 196 231 232 189 231 224 232 189 224 225 232 189 225 190 232 190 191 198 233 190 198 197 233 190 197 232 233 190 232 225 233 190 225 226 233 190 226 191 233 191 192 199 234 191 199 198 234 191 198 233 234 191 233 226 234 191 226 227 234 191 227 192 234 192 193 200 235 192 200 199 235 192 199 234 235 192 234 227 235 192 227 228 235 192 228 193 235 193 194 201 236 193 201 200 236 193 200 235 236 193 235 228 236 193 228 229 236 193 229 194 236 194 195 202 237 194 202 201 237 194 201 236 237 194 236 229 237 194 229 230 237 194 230 195 237 196 197 204 239 196 204 203 239 196 203 238 239 196 238 231 239 196 231 232 239 196 232 197 239 197 198 205 240 197 205 204 240 197 204 239 240 197 239 232 240 197 232 233 240 197 233 198 240 198 199 206 241 198 206 205 241 198 205 240 241 198 240 233 241 198 233 234 241 198 234 199 241 199 200 207 242 199 207 206 242 199 206 241 242 199 241 234 242 199 234 235 242 199 235 200 242 200 201 208 243 200 208 207 243 200 207 242 243 200 242 235 243 200 235 236 243 200 236 201 243 201 202 209 244 201 209 208 244 201 208 243 244 201 243 236 244 201 236 237 244 201 237 202 244 210 211 218 253 210 218 217 253 210 217 252 253 210 252 245 253 210 245 246 253 210 246 211 253 211 212 219 254 211 219 218 254 211 218 253 254 211 253 246 254 211 246 247 254 211 247 212 254 212 213 220 255 212 220 219 255 212 219 254 255 212 254 247 255 212 247 248 255 212 248 213 255 213 214 221 256 213 221 220 256 213 220 255 256 213 255 248 256 213 248 249 256 213 249 214 256 214 215 222 257 214 222 221 257 214 221 256 257 214 256 249 257 214 249 250 257 214 250 215 257 215 216 223 258 215 223 222 258 215 222 257 258 215 257 250 258 215 250 251 258 215 251 216 258 217 218 225 260 217 225 224 260 217 224 259 260 217 259 252 260 217 252 253 260 217 253 218 260 218 219 226 261 218 226 225 261 218 225 260 261 218 260 253 261 218 253 254 261 218 254 219 261 219 220 227 262 219 227 226 262 219 226 261 262 219 261 254 262 219 254 255 262 219 255 220 262 220 221 228 263 220 228 227 263 220 227 262 263 220 262 255 263 220 255 256 263 220 256 221 263 221 222 229 264 221 229 228 264 221 228 263 264 221 263 256 264 221 256 257 264 221 257 222 264 222 223 230 265 222 230 229 265 222 229 264 265 222 264 257 265 222 257 258 265 222 258 223 265 224 225 232 267 224 232 231 267 224 231 266 267 224 266 259 267 224 259 260 267 224 260 225 267 225 226 233 268 225 233 232 268 225 232 267 268 225 267 260 268 225 260 261 268 225 261 226 268 226 227 234 269 226 234 233 269 226 233 268 269 226 268 261 269 226 261 262 269 226 262 227 269 227 228 235 270 227 235 234 270 227 234 269 270 227 269 262 270 227 262 263 270 227 263 228 270 228 229 236 271 228 236 235 271 228 235 270 271 228 270 263 271 228 263 264 271 228 264 229 271 229 230 237 272 229 237 236 272 229 236 271 272 229 271 264 272 229 264 265 272 229 265 230 272 231 232 239 274 231 239 238 274 231 238 273 274 231 273 266 274 231 266 267 274 231 267 232 274 232 233 240 275 232 240 239 275 232 239 274 275 232 274 267 275 232 267 268 275 232 268 233 275 233 234 241 276 233 241 240 276 233 240 275 276 233 275 268 276 233 268 269 276 233 269 234 276 234 235 242 277 234 242 241 277 234 241 276 277 234 276 269 277 234 269 270 277 234 270 235 277 235 236 243 278 235 243 242 278 235 242 277 278 235 277 270 278 235 270 271 278 235 271 236 278 236 237 244 279 236 244 243 279 236 243 278 279 236 278 271 279 236 271 272 279 236 272 237 279 245 246 253 288 245 253 252 288 245 252 287 288 245 287 280 288 245 280 281 288 245 281 246 288 246 247 254 289 246 254 253 289 246 253 288 289 246 288 281 289 246 281 282 289 246 282 247 289 247 248 255 290 247 255 254 290 247 254 289 290 247 289 282 290 247 282 283 290 247 283 248 290 248 249 256 291 248 256 255 291 248 255 290 291 248 290 283 291 248 283 284 291 248 284 249 291 249 250 257 292 249 257 256 292 249 256 291 292 249 291 284 292 249 284 285 292 249 285 250 292 250 251 258 293 250 258 257 293 250 257 292 293 250 292 285 293 250 285 286 293 250 286 251 293 252 253 260 295 252 260 259 295 252 259 294 295 252 294 287 295 252 287 288 295 252 288 253 295 253 254 261 296 253 261 260 296 253 260 295 296 253 295 288 296 253 288 289 296 253 289 254 296 254 255 262 297 254 262 261 297 254 261 296 297 254 296 289 297 254 289 290 297 254 290 255 297 255 256 263 298 255 263 262 298 255 262 297 298 255 297 290 298 255 290 291 298 255 291 256 298 256 257 264 299 256 264 263 299 256 263 298 299 256 298 291 299 256 291 292 299 256 292 257 299 257 258 265 300 257 265 264 300 257 264 299 300 257 299 292 300 257 292 293 300 257 293 258 300 259 260 267 302 259 267 266 302 259 266 301 302 259 301 294 302 259 294 295 302 259 295 260 302 260 261 268 303 260 268 267 303 260 267 302 303 260 302 295 303 260 295 296 303 260 296 261 303 261 262 269 304 261 269 268 304 261 268 303 304 261 303 296 304 261 296 297 304 261 297 262 304 262 263 270 305 262 270 269 305 262 269 304 305 262 304 297 305 262 297 298 305 262 298 263 305 263 264 271 306 263 271 270 306 263 270 305 306 263 305 298 306 263 298 299 306 263 299 264 306 264 265 272 307 264 272 271 307 264 271 306 307 264 306 299 307 264 299 300 307 264 300 265 307 266 267 274 309 266 274 273 309 266 273 308 309 266 308 301 309 266 301 302 309 266 302 267 309 267 268 275 310 267 275 274 310 267 274 309 310 267 309 302 310 267 302 303 310 267 303 268 310 268 269 276 311 268 276 275 311 268 275 310 311 268 310 303 311 268 303 304 311 268 304 269 311 269 270 277 312 269 277 276 312 269 276 311 312 269 311 304 312 269 304 305 312 269 305 270 312 270 271 278 313 270 278 277 313 270 277 312 313 270 312 305 313 270 305 306 313 270 306 271 313 271 272 279 314 271 279 278 314 271 278 313 314 271 313 306 314 271 306 307 314 271 307 272 314 280 281 288 323 280 288 287 323 280 287 322 323 280 322 315 323 280 315 316 323 280 316 281 323 281 282 289 324 281 289 288 324 281 288 323 324 281 323 316 324 281 316 317 324 281 317 282 324 282 283 290 325 282 290 289 325 282 289 324 325 282 324 317 325 282 317 318 325 282 318 283 325 283 284 291 326 283 291 290 326 283 290 325 326 283 325 318 326 283 318 319 326 283 319 284 326 284 285 292 327 284 292 291 327 284 291 326 327 284 326 319 327 284 319 320 327 284 320 285 327 285 286 293 328 285 293 292 328 285 292 327 328 285 327 320 328 285 320 321 328 285 321 286 328 287 288 295 330 287 295 294 330 287 294 329 330 287 329 322 330 287 322 323 330 287 323 288 330 288 289 296 331 288 296 295 331 288 295 330 331 288 330 323 331 288 323 324 331 288 324 289 331 289 290 297 332 289 297 296 332 289 296 331 332 289 331 324 332 289 324 325 332 289 325 290 332 290 291 298 333 290 298 297 333 290 297 332 333 290 332 325 333 290 325 326 333 290 326 291 333 291 292 299 334 291 299 298 334 291 298 333 334 291 333 326 334 291 326 327 334 291 327 292 334 292 293 300 335 292 300 299 335 292 299 334 335 292 334 327 335 292 327 328 335 292 328 293 335 294 295 302 337 294 302 301 337 294 301 336 337 294 336 329 337 294 329 330 337 294 330 295 337 295 296 303 338 295 303 302 338 295 302 337 338 295 337 330 338 295 330 331 338 295 331 296 338 296 297 304 339 296 304 303 339 296 303 338 339 296 338 331 339 296 331 332 339 296 332 297 339 297 298 305 340 297 305 304 340 297 304 339 340 297 339 332 340 297 332 333 340 297 333 298 340 298 299 306 341 298 306 305 341 298 305 340 341 298 340 333 341 298 333 334 341 298 334 299 341 299 300 307 342 299 307 306 342 299 306 341 342 299 341 334 342 299 334 335 342 299 335 300 342 301 302 309 344 301 309 308 344 301 308 343 344 301 343 336 344 301 336 337 344 301 337 302 344 302 303 310 345 302 310 309 345 302 309 344 345 302 344 337 345 302 337 338 345 302 338 303 345 303 304 311 346 303 311 310 346 303 310 345 346 303 345 338 346 303 338 339 346 303 339 304 346 304 305 312 347 304 312 311 347 304 311 346 347 304 346 339 347 304 339 340 347 304 340 305 347 305 306 313 348 305 313 312 348 305 312 347 348 305 347 340 348 305 340 341 348 305 341 306 348 306 307 314 349 306 314 313 349 306 313 348 349 306 348 341 349 306 341 342 349 306 342 307 349</DataArray><DataArray type="Int32" Name="offsets" NumberOfComponents="1" format="ascii">4 8 12 16 20 24 28 32 36 40 44 48 52 56 60 64 68 72 76 80 84 88 92 96 100 104 108 112 116 120 124 128 132 136 140 144 148 152 156 160 164 168 172 176 180 184 188 192 196 200 204 208 212 216 220 224 228 232 236 240 244 248 252 256 260 264 268 272 276 280 284 288 292 296 300 304 308 312 316 320 324 328 332 336 340 344 348 352 356 360 364 368 372 376 380 384 388 392 396 400 404 408 412 416 420 424 428 432 436 440 444 448 452 456 460 464 468 472 476 480 484 488 492 496 500 504 508 512 516 520 524 528 532 536 540 544 548 552 556 560 564 568 572 576 580 584 588 592 596 600 604 608 612 616 620 624 628 632 636 640 644 648 652 656 660 664 668 672 676 680 684 688 692 696 700 704 708 712 716 720 724 728 732 736 740 744 748 752 756 760 764 768 772 776 780 784 788 792 796 800 804 808 812 816 820 824 828 832 836 840 844 848 852 856 860 864 868 872 876 880 884 888 892 896 900 904 908 912 916 920 924 928 932 936 940 944 948 952 956 960 964 968 972 976 980 984 988 992 996 1000 1004 1008 1012 1016 1020 1024 1028 1032 1036 1040 1044 1048 1052 1056 1060 1064 1068 1072 1076 1080 1084 1088 1092 1096 1100 1104 1108 1112 1116 1120 1124 1128 1132 1136 1140 1144 1148 1152 1156 1160 1164 1168 1172 1176 1180 1184 1188 1192 1196 1200 1204 1208 1212 1216 1220 1224 1228 1232 1236 1240 1244 1248 1252 1256 1260 1264 1268 1272 1276 1280 1284 1288 1292 1296 1300 1304 1308 1312 1316 1320 1324 1328 1332 1336 1340 1344 1348 1352 1356 1360 1364 1368 1372 1376 1380 1384 1388 1392 1396 1400 1404 1408 1412 1416 1420 1424 1428 1432 1436 1440 1444 1448 1452 1456 1460 1464 1468 1472 1476 1480 1484 1488 1492 1496 1500 1504 1508 1512 1516 1520 1524 1528 1532 1536 1540 1544 1548 1552 1556 1560 1564 1568 1572 1576 1580 1584 1588 1592 1596 1600 1604 1608 1612 1616 1620 1624 1628 1632 1636 1640 1644 1648 1652 1656 1660 1664 1668 1672 1676 1680 1684 1688 1692 1696 1700 1704 1708 1712 1716 1720 1724 1728 1732 1736 1740 1744 1748 1752 1756 1760 1764 1768 1772 1776 1780 1784 1788 1792 1796 1800 1804 1808 1812 1816 1820 1824 1828 1832 1836 1840 1844 1848 1852 1856 1860 1864 1868 1872 1876 1880 1884 1888 1892 1896 1900 1904 1908 1912 1916 1920 1924 1928 1932 1936 1940 1944 1948 1952 1956 1960 1964 1968 1972 1976 1980 1984 1988 1992 1996 2000 2004 2008 2012 2016 2020 2024 2028 2032 2036 2040 2044 2048 2052 2056 2060 2064 2068 2072 2076 2080 2084 2088 2092 2096 2100 2104 2108 2112 2116 2120 2124 2128 2132 2136 2140 2144 2148 2152 2156 2160 2164 2168 2172 2176 2180 2184 2188 2192 2196 2200 2204 2208 2212 2216 2220 2224 2228 2232 2236 2240 2244 2248 2252 2256 2260 2264 2268 2272 2276 2280 2284 2288 2292 2296 2300 2304 2308 2312 2316 2320 2324 2328 2332 2336 2340 2344 2348 2352 2356 2360 2364 2368 2372 2376 2380 2384 2388 2392 2396 2400 2404 2408 2412 2416 2420 2424 2428 2432 2436 2440 2444 2448 2452 2456 2460 2464 2468 2472 2476 2480 2484 2488 2492 2496 2500 2504 2508 2512 2516 2520 2524 2528 2532 2536 2540 2544 2548 2552 2556 2560 2564 2568 2572 2576 2580 2584 2588 2592 2596 2600 2604 2608 2612 2616 2620 2624 2628 2632 2636 2640 2644 2648 2652 2656 2660 2664 2668 2672 2676 2680 2684 2688 2692 2696 2700 2704 2708 2712 2716 2720 2724 2728 2732 2736 2740 2744 2748 2752 2756 2760 2764 2768 2772 2776 2780 2784 2788 2792 2796 2800 2804 2808 2812 2816 2820 2824 2828 2832 2836 2840 2844 2848 2852 2856 2860 2864 2868 2872 2876 2880 2884 2888 2892 2896 2900 2904 2908 2912 2916 2920 2924 2928 2932 2936 2940 2944 2948 2952 2956 2960 2964 2968 2972 2976 2980 2984 2988 2992 2996 3000 3004 3008 3012 3016 3020 3024 3028 3032 3036 3040 3044 3048 3052 3056 3060 3064 3068 3072 3076 3080 3084 3088 3092 3096 3100 3104 3108 3112 3116 3120 3124 3128 3132 3136 3140 3144 3148 3152 3156 3160 3164 3168 3172 3176 3180 3184 3188 3192 3196 3200 3204 3208 3212 3216 3220 3224 3228 3232 3236 3240 3244 3248 3252 3256 3260 3264 3268 3272 3276 3280 3284 3288 3292 3296 3300 3304 3308 3312 3316 3320 3324 3328 3332 3336 3340 3344 3348 3352 3356 3360 3364 3368 3372 3376 3380 3384 3388 3392 3396 3400 3404 3408 3412 3416 3420 3424 3428 3432 3436 3440 3444 3448 3452 3456 3460 3464 3468 3472 3476 3480 3484 3488 3492 3496 3500 3504 3508 3512 3516 3520 3524 3528 3532 3536 3540 3544 3548 3552 3556 3560 3564 3568 3572 3576 3580 3584 3588 3592 3596 3600 3604 3608 3612 3616 3620 3624 3628 3632 3636 3640 3644 3648 3652 3656 3660 3664 3668 3672 3676 3680 3684 3688 3692 3696 3700 3704 3708 3712 3716 3720 3724 3728 3732 3736 3740 3744 3748 3752 3756 3760 3764 3768 3772 3776 3780 3784 3788 3792 3796 3800 3804 3808 3812 3816 3820 3824 3828 3832 3836 3840 3844 3848 3852 3856 3860 3864 3868 3872 3876 3880 3884 3888 3892 3896 3900 3904 3908 3912 3916 3920 3924 3928 3932 3936 3940 3944 3948 3952 3956 3960 3964 3968 3972 3976 3980 3984 3988 3992 3996 4000 4004 4008 4012 4016 4020 4024 4028 4032 4036 4040 4044 4048 4052 4056 4060 4064 4068 4072 4076 4080 4084 4088 4092 4096 4100 4104 4108 4112 4116 4120 4124 4128 4132 4136 4140 4144 4148 4152 4156 4160 4164 4168 4172 4176 4180 4184 4188 4192 4196 4200 4204 4208 4212 4216 4220 4224 4228 4232 4236 4240 4244 4248 4252 4256 4260 4264 4268 4272 4276 4280 4284 4288 4292 4296 4300 4304 4308 4312 4316 4320 4324 4328 4332 4336 4340 4344 4348 4352 4356 4360 4364 4368 4372 4376 4380 4384 4388 4392 4396 4400 4404 4408 4412 4416 4420 4424 4428 4432 4436 4440 4444 4448 4452 4456 4460 4464 4468 4472 4476 4480 4484 4488 4492 4496 4500 4504 4508 4512 4516 4520 4524 4528 4532 4536 4540 4544 4548 4552 4556 4560 4564 4568 4572 4576 4580 4584 4588 4592 4596 4600 4604 4608 4612 4616 4620 4624 4628 4632 4636 4640 4644 4648 4652 4656 4660 4664 4668 4672 4676 4680 4684 4688 4692 4696 4700 4704 4708 4712 4716 4720 4724 4728 4732 4736 4740 4744 4748 4752 4756 4760 4764 4768 4772 4776 4780 4784 4788 4792 4796 4800 4804 4808 4812 4816 4820 4824 4828 4832 4836 4840 4844 4848 4852 4856 4860 4864 4868 4872 4876 4880 4884 4888 4892 4896 4900 4904 4908 4912 4916 4920 4924 4928 4932 4936 4940 4944 4948 4952 4956 4960 4964 4968 4972 4976 4980 4984 4988 4992 4996 5000 5004 5008 5012 5016 5020 5024 5028 5032 5036 5040 5044 5048 5052 5056 5060 5064 5068 5072 5076 5080 5084 5088 5092 5096 5100 5104 5108 5112 5116 5120 5124 5128 5132 5136 5140 5144 5148 5152 5156 5160 5164 5168 5172 5176 5180 5184</DataArray><DataArray type="UInt8" Name="types" NumberOfComponents="1" format="ascii">10 10 10 10 10 10 10 10 10 10 10 10 10 10 10 10 10 10 10 10 10 10 10 10 10 10 10 10 10 10 10 10 10 10 10 10 10 10 10 10 10 10 10 10 10 10 10 10 10 10 10 10 10 10 10 10 10 10 10 10 10 10 10 10 10 10 10 10 10 10 10 10 10 10 10 10 10 10 10 10 10 10 10 10 10 10 10 10 10 10 10 10 10 10 10 10 10 10 10 10 10 10 10 10 10 10 10 10 10 10 10 10 10 10 10 10 10 10 10 10 10 10 10 10 10 10 10 10 10 10 10 10 10 10 10 10 10 10 10 10 10 10 10 10 10 10 10 10 10 10 10 10 10 10 10 10 10 10 10 10 10 10 10 10 10 10 10 10 10 10 10 10 10 10 10 10 10 10 10 10 10 10 10 10 10 10 10 10 10 10 10 10 10 10 10 10 10 10 10 10 10 10 10 10 10 10 10 10 10 10 10 10 10 10 10 10 10 10 10 10 10 10 10 10 10 10 10 10 10 10 10 10 10 10 10 10 10 10 10 10 10 10 10 10 10 10 10 10 10 10 10 10 10 10 10 10 10 10 10 10 10 10 10 10 10 10 10 10 10 10 10 10 10 10 10 10 10 10 10 10 10 10 10 10 10 10 10 10 10 10 10 10 10 10 10 10 10 10 10 10 10 10 10 10 10 10 10 10 10 10 10 10 10 10 10 10 10 10 10 10 10 10 10 10 10 10 10 10 10 10 10 10 10 10 10 10 10 10 10 10 10 10 10 10 10 10 10 10 10 10 10 10 10 10 10 10 10 10 10 10 10 10 10 10 10 10 10 10 10 10 10 10 10 10 10 10 10 10 10 10 10 10 10 10 10 10 10 10 10 10 10 10 10 10 10 10 10 10 10 10 10 10 10 10 10 10 10 10 10 10 10 10 10 10 10 10 10 10 10 10 10 10 10 10 10 10 10 10 10 10 10 10 10 10 10 10 10 10 10 10 10 10 10 10 10 10 10 10 10 10 10 10 10 10 10 10 10 10 10 10 10 10 10 10 10 10 10 10 10 10 10 10 10 10 10 10 10 10 10 10 10 10 10 10 10 10 10 10 10 10 10 10 10 10 10 10 10 10 10 10 10 10 10 10 10 10 10 10 10 10 10 10 10 10 10 10 10 10 10 10 10 10 10 10 10 10 10 10 10 10 10 10 10 10 10 10 10 10 10 10 10 10 10 10 10 10 10 10 10 10 10 10 10 10 10 10 10 10 10 10 10 10 10 10 10 10 10 10 10 10 10 10 10 10 10 10 10 10 10 10 10 10 10 10 10 10 10 10 10 10 10 10 10 10 10 10 10 10 10 10 10 10 10 10 10 10 10 10 10 10 10 10 10 10 10 10 10 10 10 10 10 10 10 10 10 10 10 10 10 10 10 10 10 10 10 10 10 10 10 10 10 10 10 10 10 10 10 10 10 10 10 10 10 10 10 10 10 10 10 10 10 10 10 10 10 10 10 10 10 10 10 10 10 10 10 10 10 10 10 10 10 10 10 10 10 10 10 10 10 10 10 10 10 10 10 10 10 10 10 10 10 10 10 10 10 10 10 10 10 10 10 10 10 10 10 10 10 10 10 10 10 10 10 10 10 10 10 10 10 10 10 10 10 10 10 10 10 10 10 10 10 10 10 10 10 10 10 10 10 10 10 10 10 10 10 10 10 10 10 10 10 10 10 10 10 10 10 10 10 10 10 10 10 10 10 10 10 10 10 10 10 10 10 10 10 10 10 10 10 10 10 10 10 10 10 10 10 10 10 10 10 10 10 10 10 10 10 10 10 10 10 10 10 10 10 10 10 10 10 10 10 10 10 10 10 10 10 10 10 10 10 10 10 10 10 10 10 10 10 10 10 10 10 10 10 10 10 10 10 10 10 10 10 10 10 10 10 10 10 10 10 10 10 10 10 10 10 10 10 10 10 10 10 10 10 10 10 10 10 10 10 10 10 10 10 10 10 10 10 10 10 10 10 10 10 10 10 10 10 10 10 10 10 10 10 10 10 10 10 10 10 10 10 10 10 10 10 10 10 10 10 10 10 10 10 10 10 10 10 10 10 10 10 10 10 10 10 10 10 10 10 10 10 10 10 10 10 10 10 10 10 10 10 10 10 10 10 10 10 10 10 10 10 10 10 10 10 10 10 10 10 10 10 10 10 10 10 10 10 10 10 10 10 10 10 10 10 10 10 10 10 10 10 10 10 10 10 10 10 10 10 10 10 10 10 10 10 10 10 10 10 10 10 10 10 10 10 10 10 10 10 10 10 10 10 10 10 10 10 10 10 10 10 10 10 10 10 10 10 10 10 10 10 10 10 10 10 10 10 10 10 10 10 10 10 10 10 10 10 10 10 10 10 10 10 10 10 10 10 10 10 10 10 10 10 10 10 10 10 10 10 10 10 10 10 10 10 10 10 10 10 10 10 10 10 10 10 10 10 10 10 10 10 10 10 10 10 10 10 10 10 10 10 10 10 10 10 10 10 10 10 10 10 10 10 10 10 10 10 10 10 10 10 10 10 10 10 10 10 10 10 10 10 10 10 10 10 10 10 10 10 10 10 10 10 10 10 10 10 10 10 10 10 10 10 10 10 10 10 10 10 10 10 10 10 10 10 10 10 10 10 10 10 10 10 10 10 10 10 10 10 10 10 10 10 10 10 10 10 10 10 10 10 10 10 10 10 10 10 10 10 10 10 10 10 10 10 10 10 10 10 10 10 10 10 10 10 10 10 10 10 10 10 10 10 10 10 10 10 10 10 10 10 10 10 10 10 10 10 10 10 10 10 10 10 10 10 10 10 10 10 10 10 10 10 10 10 10 10 10 10 10 10 10 10 10 10 10 10 10 10 10 10 10 10 10 10 10 10 10 10 10 10 10 10 10</DataArray></Cells><CellData><DataArray type="Int32" Name="material_id" NumberOfComponents="1" format="ascii">1 1 1 1 1 1 1 1 1 1 1 1 1 1 1 1 1 1 1 1 1 1 1 1 1 1 1 1 1 1 1 1 1 1 1 1 1 1 1 1 1 1 1 1 1 1 1 1 1 1 1 1 1 1 1 1 1 1 1 1 1 1 1 1 1 1 1 1 1 1 1 1 1 1 1 1 1 1 1 1 1 1 1 1 1 1 1 1 1 1 1 1 1 1 1 1 1 1 1 1 1 1 1 1 1 1 1 1 1 1 1 1 1 1 1 1 1 1 1 1 1 1 1 1 1 1 1 1 1 1 1 1 1 1 1 1 1 1 1 1 1 1 1 1 1 1 1 1 1 1 1 1 1 1 1 1 1 1 1 1 1 1 1 1 1 1 1 1 1 1 1 1 1 1 1 1 1 1 1 1 1 1 1 1 1 1 1 1 1 1 1 1 1 1 1 1 1 1 0 0 0 0 0 0 1 1 1 1 1 1 1 1 1 1 1 1 1 1 1 1 1 1 1 1 1 1 1 1 1 1 1 1 1 1 0 0 0 0 0 0 1 1 1 1 1 1 1 1 1 1 1 1 1 1 1 1 1 1 1 1 1 1 1 1 1 1 1 1 1 1 1 1 1 1 1 1 1 1 1 1 1 1 1 1 1 1 1 1 2 2 2 2 2 2 2 2 2 2 2 2 1 1 1 1 1 1 1 1 1 1 1 1 2 2 2 2 2 2 2 2 2 2 2 2 2 2 2 2 2 2 2 2 2 2 2 2 1 1 1 1 1 1 0 0 0 0 0 0 2 2 2 2 2 2 2 2 2 2 2 2 2 2 2 2 2 2 2 2 2 2 2 2 1 1 1 1 1 1 0 0 0 0 0 0 2 2 2 2 2 2 2 2 2 2 2 2 2 2 2 2 2 2 2 2 2 2 2 2 1 1 1 1 1 1 1 1 1 1 1 1 2 2 2 2 2 2 2 2 2 2 2 2 2 2 2 2 2 2 2 2 2 2 2 2 1 1 1 1 1 1 1 1 1 1 1 1 2 2 2 2 2 2 2 2 2 2 2 2 2 2 2 2 2 2 2 2 2 2 2 2 1 1 1 1 1 1 0 0 0 0 0 0 2 2 2 2 2 2 2 2 2 2 2 2 2 2 2 2 2 2 2 2 2 2 2 2 1 1 1 1 1 1 0 0 0 0 0 0 2 2 2 2 2 2 2 2 2 2 2 2 2 2 2 2 2 2 2 2 2 2 2 2 1 1 1 1 1 1 1 1 1 1 1 1 2 2 2 2 2 2 2 2 2 2 2 2 3 3 3 3 3 3 2 2 2 2 2 2 1 1 1 1 1 1 1 1 1 1 1 1 2 2 2 2 2 2 3 3 3 3 3 3 3 3 3 3 3 3 2 2 2 2 2 2 1 1 1 1 1 1 0 0 0 0 0 0 2 2 2 2 2 2 3 3 3 3 3 3 3 3 3 3 3 3 2 2 2 2 2 2 1 1 1 1 1 1 0 0 0 0 0 0 2 2 2 2 2 2 3 3 3 3 3 3 3 3 3 3 3 3 2 2 2 2 2 2 1 1 1 1 1 1 1 1 1 1 1 1 2 2 2 2 2 2 3 3 3 3 3 3 3 3 3 3 3 3 2 2 2 2 2 2 1 1 1 1 1 1 1 1 1 1 1 1 2 2 2 2 2 2 3 3 3 3 3 3 3 3 3 3 3 3 2 2 2 2 2 2 1 1 1 1 1 1 0 0 0 0 0 0 2 2 2 2 2 2 3 3 3 3 3 3 3 3 3 3 3 3 2 2 2 2 2 2 1 1 1 1 1 1 0 0 0 0 0 0 2 2 2 2 2 2 3 3 3 3 3 3 3 3 3 3 3 3 2 2 2 2 2 2 1 1 1 1 1 1 1 1 1 1 1 1 2 2 2 2 2 2 3 3 3 3 3 3 3 3 3 3 3 3 3 3 3 3 3 3 2 2 2 2 2 2 2 2 2 2 2 2 3 3 3 3 3 3 3 3 3 3 3 3 3 3 3 3 3 3 3 3 3 3 3 3 2 2 2 2 2 2 2 2 2 2 2 2 3 3 3 3 3 3 3 3 3 3 3 3 3 3 3 3 3 3 3 3 3 3 3 3 2 2 2 2 2 2 2 2 2 2 2 2 3 3 3 3 3 3 3 3 3 3 3 3 3 3 3 3 3 3 3 3 3 3 3 3 2 2 2 2 2 2 2 2 2 2 2 2 3 3 3 3 3 3 3 3 3 3 3 3 3 3 3 3 3 3 3 3 3 3 3 3 3 3 3 3 3 3 3 3 3 3 3 3 3 3 3 3 3 3 3 3 3 3 3 3 3 3 3 3 3 3 3 3 3 3 3 3 3 3 3 3 3 3 3 3 3 3 3 3 3 3 3 3 3 3 3 3 3 3 3 3 3 3 3 3 3 3 3 3 3 3 3 3 3 3 3 3 3 3 3 3 3 3 3 3 3 3 3 3 3 3 3 3 3 3 3 3 3 3 3 3 3 3 3 3 3 3 3 3 3 3 3 3 3 3 3 3 3 3 3 3 3 3 3 3 3 3 3 3 3 3 3 3 0 0 0 0 0 0 0 0 0 0 0 0 0 0 0 0 0 0 0 0 0 0 0 0 0 0 0 0 0 0 0 0 0 0 0 0 0 0 0 0 0 0 0 0 0 0 0 0 0 0 0 0 0 0 0 0 0 0 0 0 0 0 0 0 0 0 0 0 0 0 0 0 0 0 0 0 0 0 0 0 0 0 0 0 0 0 0 0 0 0 0 0 0 0 0 0 0 0 0 0 0 0 0 0 0 0 0 0 0 0 0 0 0 0 0 0 0 0 0 0 0 0 0 0 0 0 0 0 0 0 0 0 0 0 0 0 0 0 0 0 0 0 0 0</DataArray><DataArray type="Float64" Name="local_thickness_nm" NumberOfComponents="1" format="ascii">NaN NaN NaN NaN NaN NaN NaN NaN NaN NaN NaN NaN NaN NaN NaN NaN NaN NaN NaN NaN NaN NaN NaN NaN NaN NaN NaN NaN NaN NaN NaN NaN NaN NaN NaN NaN NaN NaN NaN NaN NaN NaN NaN NaN NaN NaN NaN NaN NaN NaN NaN NaN NaN NaN NaN NaN NaN NaN NaN NaN NaN NaN NaN NaN NaN NaN NaN NaN NaN NaN NaN NaN NaN NaN NaN NaN NaN NaN NaN NaN NaN NaN NaN NaN NaN NaN NaN NaN NaN NaN NaN NaN NaN NaN NaN NaN NaN NaN NaN NaN NaN NaN NaN NaN NaN NaN NaN NaN NaN NaN NaN NaN NaN NaN NaN NaN NaN NaN NaN NaN NaN NaN NaN NaN NaN NaN NaN NaN NaN NaN NaN NaN NaN NaN NaN NaN NaN NaN NaN NaN NaN NaN NaN NaN NaN NaN NaN NaN NaN NaN NaN NaN NaN NaN NaN NaN NaN NaN NaN NaN NaN NaN NaN NaN NaN NaN NaN NaN NaN NaN NaN NaN NaN NaN NaN NaN NaN NaN NaN NaN NaN NaN NaN NaN NaN NaN NaN NaN NaN NaN NaN NaN NaN NaN NaN NaN NaN NaN NaN NaN NaN NaN NaN NaN NaN NaN NaN NaN NaN NaN NaN NaN NaN NaN NaN NaN NaN NaN NaN NaN NaN NaN NaN NaN NaN NaN NaN NaN NaN NaN NaN NaN NaN NaN NaN NaN NaN NaN NaN NaN NaN NaN NaN NaN NaN NaN NaN NaN NaN NaN NaN NaN NaN NaN NaN NaN NaN NaN NaN NaN NaN NaN NaN NaN NaN NaN NaN NaN NaN NaN NaN NaN NaN NaN NaN NaN NaN NaN NaN NaN NaN NaN NaN NaN NaN NaN NaN NaN 80.0 80.0 80.0 80.0 80.0 80.0 20.0 20.0 20.0 20.0 20.0 20.0 NaN NaN NaN NaN NaN NaN NaN NaN NaN NaN NaN NaN 20.0 20.0 20.0 20.0 20.0 20.0 80.0 80.0 80.0 80.0 80.0 80.0 80.0 80.0 80.0 80.0 80.0 80.0 20.0 20.0 20.0 20.0 20.0 20.0 NaN NaN NaN NaN NaN NaN NaN NaN NaN NaN NaN NaN 20.0 20.0 20.0 20.0 20.0 20.0 80.0 80.0 80.0 80.0 80.0 80.0 80.0 80.0 80.0 80.0 80.0 80.0 20.0 20.0 20.0 20.0 20.0 20.0 NaN NaN NaN NaN NaN NaN NaN NaN NaN NaN NaN NaN 20.0 20.0 20.0 20.0 20.0 20.0 80.0 80.0 80.0 80.0 80.0 80.0 80.0 80.0 80.0 80.0 80.0 80.0 20.0 20.0 20.0 20.0 20.0 20.0 NaN NaN NaN NaN NaN NaN NaN NaN NaN NaN NaN NaN 20.0 20.0 20.0 20.0 20.0 20.0 80.0 80.0 80.0 80.0 80.0 80.0 80.0 80.0 80.0 80.0 80.0 80.0 20.0 20.0 20.0 20.0 20.0 20.0 NaN NaN NaN NaN NaN NaN NaN NaN NaN NaN NaN NaN 20.0 20.0 20.0 20.0 20.0 20.0 80.0 80.0 80.0 80.0 80.0 80.0 80.0 80.0 80.0 80.0 80.0 80.0 20.0 20.0 20.0 20.0 20.0 20.0 NaN NaN NaN NaN NaN NaN NaN NaN NaN NaN NaN NaN 20.0 20.0 20.0 20.0 20.0 20.0 80.0 80.0 80.0 80.0 80.0 80.0 80.0 80.0 80.0 80.0 80.0 80.0 20.0 20.0 20.0 20.0 20.0 20.0 NaN NaN NaN NaN NaN NaN NaN NaN NaN NaN NaN NaN 20.0 20.0 20.0 20.0 20.0 20.0 80.0 80.0 80.0 80.0 80.0 80.0 80.0 80.0 80.0 80.0 80.0 80.0 20.0 20.0 20.0 20.0 20.0 20.0 NaN NaN NaN NaN NaN NaN NaN NaN NaN NaN NaN NaN 20.0 20.0 20.0 20.0 20.0 20.0 80.0 80.0 80.0 80.0 80.0 80.0 1000.0 1000.0 1000.0 1000.0 1000.0 1000.0 20.0 20.0 20.0 20.0 20.0 20.0 NaN NaN NaN NaN NaN NaN NaN NaN NaN NaN NaN NaN 20.0 20.0 20.0 20.0 20.0 20.0 1000.0 1000.0 1000.0 1000.0 1000.0 1000.0 1000.0 1000.0 1000.0 1000.0 1000.0 1000.0 20.0 20.0 20.0 20.0 20.0 20.0 NaN NaN NaN NaN NaN NaN NaN NaN NaN NaN NaN NaN 20.0 20.0 20.0 20.0 20.0 20.0 1000.0 1000.0 1000.0 1000.0 1000.0 1000.0 1000.0 1000.0 1000.0 1000.0 1000.0 1000.0 20.0 20.0 20.0 20.0 20.0 20.0 NaN NaN NaN NaN NaN NaN NaN NaN NaN NaN NaN NaN 20.0 20.0 20.0 20.0 20.0 20.0 1000.0 1000.0 1000.0 1000.0 1000.0 1000.0 1000.0 1000.0 1000.0 1000.0 1000.0 1000.0 20.0 20.0 20.0 20.0 20.0 20.0 NaN NaN NaN NaN NaN NaN NaN NaN NaN NaN NaN NaN 20.0 20.0 20.0 20.0 20.0 20.0 1000.0 1000.0 1000.0 1000.0 1000.0 1000.0 1000.0 1000.0 1000.0 1000.0 1000.0 1000.0 20.0 20.0 20.0 20.0 20.0 20.0 NaN NaN NaN NaN NaN NaN NaN NaN NaN NaN NaN NaN 20.0 20.0 20.0 20.0 20.0 20.0 1000.0 1000.0 1000.0 1000.0 1000.0 1000.0 1000.0 1000.0 1000.0 1000.0 1000.0 1000.0 20.0 20.0 20.0 20.0 20.0 20.0 NaN NaN NaN NaN NaN NaN NaN NaN NaN NaN NaN NaN 20.0 20.0 20.0 20.0 20.0 20.0 1000.0 1000.0 1000.0 1000.0 1000.0 1000.0 1000.0 1000.0 1000.0 1000.0 1000.0 1000.0 20.0 20.0 20.0 20.0 20.0 20.0 NaN NaN NaN NaN NaN NaN NaN NaN NaN NaN NaN NaN 20.0 20.0 20.0 20.0 20.0 20.0 1000.0 1000.0 1000.0 1000.0 1000.0 1000.0 1000.0 1000.0 1000.0 1000.0 1000.0 1000.0 20.0 20.0 20.0 20.0 20.0 20.0 NaN NaN NaN NaN NaN NaN NaN NaN NaN NaN NaN NaN 20.0 20.0 20.0 20.0 20.0 20.0 1000.0 1000.0 1000.0 1000.0 1000.0 1000.0 1000.0 1000.0 1000.0 1000.0 1000.0 1000.0 1000.0 1000.0 1000.0 1000.0 1000.0 1000.0 80.0 80.0 80.0 80.0 80.0 80.0 80.0 80.0 80.0 80.0 80.0 80.0 1000.0 1000.0 1000.0 1000.0 1000.0 1000.0 1000.0 1000.0 1000.0 1000.0 1000.0 1000.0 1000.0 1000.0 1000.0 1000.0 1000.0 1000.0 1000.0 1000.0 1000.0 1000.0 1000.0 1000.0 80.0 80.0 80.0 80.0 80.0 80.0 80.0 80.0 80.0 80.0 80.0 80.0 1000.0 1000.0 1000.0 1000.0 1000.0 1000.0 1000.0 1000.0 1000.0 1000.0 1000.0 1000.0 1000.0 1000.0 1000.0 1000.0 1000.0 1000.0 1000.0 1000.0 1000.0 1000.0 1000.0 1000.0 80.0 80.0 80.0 80.0 80.0 80.0 80.0 80.0 80.0 80.0 80.0 80.0 1000.0 1000.0 1000.0 1000.0 1000.0 1000.0 1000.0 1000.0 1000.0 1000.0 1000.0 1000.0 1000.0 1000.0 1000.0 1000.0 1000.0 1000.0 1000.0 1000.0 1000.0 1000.0 1000.0 1000.0 80.0 80.0 80.0 80.0 80.0 80.0 80.0 80.0 80.0 80.0 80.0 80.0 1000.0 1000.0 1000.0 1000.0 1000.0 1000.0 1000.0 1000.0 1000.0 1000.0 1000.0 1000.0 1000.0 1000.0 1000.0 1000.0 1000.0 1000.0 1000.0 1000.0 1000.0 1000.0 1000.0 1000.0 300.0000000000001 300.0000000000001 300.0000000000001 300.0000000000001 300.0000000000001 300.0000000000001 300.0000000000001 300.0000000000001 300.0000000000001 300.0000000000001 300.0000000000001 300.0000000000001 1000.0 1000.0 1000.0 1000.0 1000.0 1000.0 1000.0 1000.0 1000.0 1000.0 1000.0 1000.0 1000.0 1000.0 1000.0 1000.0 1000.0 1000.0 1000.0 1000.0 1000.0 1000.0 1000.0 1000.0 300.0000000000001 300.0000000000001 300.0000000000001 300.0000000000001 300.0000000000001 300.0000000000001 300.0000000000001 300.0000000000001 300.0000000000001 300.0000000000001 300.0000000000001 300.0000000000001 1000.0 1000.0 1000.0 1000.0 1000.0 1000.0 1000.0 1000.0 1000.0 1000.0 1000.0 1000.0 1000.0 1000.0 1000.0 1000.0 1000.0 1000.0 1000.0 1000.0 1000.0 1000.0 1000.0 1000.0 300.0000000000001 300.0000000000001 300.0000000000001 300.0000000000001 300.0000000000001 300.0000000000001 300.0000000000001 300.0000000000001 300.0000000000001 300.0000000000001 300.0000000000001 300.0000000000001 1000.0 1000.0 1000.0 1000.0 1000.0 1000.0 1000.0 1000.0 1000.0 1000.0 1000.0 1000.0 1000.0 1000.0 1000.0 1000.0 1000.0 1000.0 1000.0 1000.0 1000.0 1000.0 1000.0 1000.0 300.0000000000001 300.0000000000001 300.0000000000001 300.0000000000001 300.0000000000001 300.0000000000001 300.0000000000001 300.0000000000001 300.0000000000001 300.0000000000001 300.0000000000001 300.0000000000001 1000.0 1000.0 1000.0 1000.0 1000.0 1000.0 1000.0 1000.0 1000.0 1000.0 1000.0 1000.0 NaN NaN NaN NaN NaN NaN NaN NaN NaN NaN NaN NaN NaN NaN NaN NaN NaN NaN NaN NaN NaN NaN NaN NaN NaN NaN NaN NaN NaN NaN NaN NaN NaN NaN NaN NaN NaN NaN NaN NaN NaN NaN NaN NaN NaN NaN NaN NaN NaN NaN NaN NaN NaN NaN NaN NaN NaN NaN NaN NaN NaN NaN NaN NaN NaN NaN NaN NaN NaN NaN NaN NaN NaN NaN NaN NaN NaN NaN NaN NaN NaN NaN NaN NaN NaN NaN NaN NaN NaN NaN NaN NaN NaN NaN NaN NaN NaN NaN NaN NaN NaN NaN NaN NaN NaN NaN NaN NaN NaN NaN NaN NaN NaN NaN NaN NaN NaN NaN NaN NaN NaN NaN NaN NaN NaN NaN NaN NaN NaN NaN NaN NaN NaN NaN NaN NaN NaN NaN NaN NaN NaN NaN NaN NaN</DataArray></CellData></Piece></UnstructuredGrid></VTKFile>