<?xml version="1.0"?><VTKFile type="UnstructuredGrid" version="0.1" byte_order="LittleEndian"><UnstructuredGrid><Piece NumberOfPoints="225" NumberOfCells="768"><Points><DataArray type="Float64" NumberOfComponents="3" format="ascii">0 0 0 0.1 0 0 0.2 0 0 0.30000000000000004 0 0 0.4 0 0 0 0.1 0 0.1 0.1 0 0.2 0.1 0 0.30000000000000004 0.1 0 0.4 0.1 0 0 0.2 0 0.1 0.2 0 0.2 0.2 0 0.30000000000000004 0.2 0 0.4 0.2 0 0 0.30000000000000004 0 0.1 0.30000000000000004 0 0.2 0.30000000000000004 0 0.30000000000000004 0.30000000000000004 0 0.4 0.30000000000000004 0 0 0.4 0 0.1 0.4 0 0.2 0.4 0 0.30000000000000004 0.4 0 0.4 0.4 0 0 0 0.1 0.1 0 0.1 0.2 0 0.1 0.30000000000000004 0 0.1 0.4 0 0.1 0 0.1 0.1 0.1 0.1 0.1 0.2 0.1 0.1 0.30000000000000004 0.1 0.1 0.4 0.1 0.1 0 0.2 0.1 0.1 0.2 0.1 0.2 0.2 0.1 0.30000000000000004 0.2 0.1 0.4 0.2 0.1 0 0.30000000000000004 0.1 0.1 0.30000000000000004 0.1 0.2 0.30000000000000004 0.1 0.30000000000000004 0.30000000000000004 0.1 0.4 0.30000000000000004 0.1 0 0.4 0.1 0.1 0.4 0.1 0.2 0.4 0.1 0.30000000000000004 0.4 0.1 0.4 0.4 0.1 0 0 0.2 0.1 0 0.2 0.2 0 0.2 0.30000000000000004 0 0.2 0.4 0 0.2 0 0.1 0.2 0.1 0.1 0.2 0.2 0.1 0.2 0.30000000000000004 0.1 0.2 0.4 0.1 0.2 0 0.2 0.2 0.1 0.2 0.2 0.2 0.2 0.2 0.30000000000000004 0.2 0.2 0.4 0.2 0.2 0 0.30000000000000004 0.2 0.1 0.30000000000000004 0.2 0.2 0.30000000000000004 0.2 0.30000000000000004 0.30000000000000004 0.2 0.4 0.30000000000000004 0.2 0 0.4 0.2 0.1 0.4 0.2 0.2 0.4 0.2 0.30000000000000004 0.4 0.2 0.4 0.4 0.2 0 0 0.30000000000000004 0.1 0 0.30000000000000004 0.2 0 0.30000000000000004 0.30000000000000004 0 0.30000000000000004 0.4 0 0.30000000000000004 0 0.1 0.30000000000000004 0.1 0.1 0.30000000000000004 0.2 0.1 0.30000000000000004 0.30000000000000004 0.1 0.30000000000000004 0.4 0.1 0.30000000000000004 0 0.2 0.30000000000000004 0.1 0.2 0.30000000000000004 0.2 0.2 0.30000000000000004 0.30000000000000004 0.2 0.30000000000000004 0.4 0.2 0.30000000000000004 0 0.30000000000000004 0.30000000000000004 0.1 0.30000000000000004 0.30000000000000004 0.2 0.30000000000000004 0.30000000000000004 0.30000000000000004 0.30000000000000004 0.30000000000000004 0.4 0.30000000000000004 0.30000000000000004 0 0.4 0.30000000000000004 0.1 0.4 0.30000000000000004 0.2 0.4 0.30000000000000004 0.30000000000000004 0.4 0.30000000000000004 0.4 0.4 0.30000000000000004 0 0 0.4 0.1 0 0.4 0.2 0 0.4 0.30000000000000004 0 0.4 0.4 0 0.4 0 0.1 0.4 0.1 0.1 0.4 0.2 0.1 0.4 0.30000000000000004 0.1 0.4 0.4 0.1 0.4 0 0.2 0.4 0.1 0.2 0.4 0.2 0.2 0.4 0.30000000000000004 0.2 0.4 0.4 0.2 0.4 0 0.30000000000000004 0.4 0.1 0.30000000000000004 0.4 0.2 0.30000000000000004 0.4 0.30000000000000004 0.30000000000000004 0.4 0.4 0.30000000000000004 0.4 0 0.4 0.4 0.1 0.4 0.4 0.2 0.4 0.4 0.30000000000000004 0.4 0.4 0.4 0.4 0.4 0 0 0.5 0.1 0 0.5 0.2 0 0.5 0.30000000000000004 0 0.5 0.4 0 0.5 0 0.1 0.5 0.1 0.1 0.5 0.2 0.1 0.5 0.30000000000000004 0.1 0.5 0.4 0.1 0.5 0 0.2 0.5 0.1 0.2 0.5 0.2 0.2 0.5 0.30000000000000004 0.2 0.5 0.4 0.2 0.5 0 0.30000000000000004 0.5 0.1 0.30000000000000004 0.5 0.2 0.30000000000000004 0.5 0.30000000000000004 0.30000000000000004 0.5 0.4 0.30000000000000004 0.5 0 0.4 0.5 0.1 0.4 0.5 0.2 0.4 0.5 0.30000000000000004 0.4 0.5 0.4 0.4 0.5 0 0 0.6000000000000001 0.1 0 0.6000000000000001 0.2 0 0.6000000000000001 0.30000000000000004 0 0.6000000000000001 0.4 0 0.6000000000000001 0 0.1 0.6000000000000001 0.1 0.1 0.6000000000000001 0.2 0.1 0.6000000000000001 0.30000000000000004 0.1 0.6000000000000001 0.4 0.1 0.6000000000000001 0 0.2 0.6000000000000001 0.1 0.2 0.6000000000000001 0.2 0.2 0.6000000000000001 0.30000000000000004 0.2 0.6000000000000001 0.4 0.2 0.6000000000000001 0 0.30000000000000004 0.6000000000000001 0.1 0.30000000000000004 0.6000000000000001 0.2 0.30000000000000004 0.6000000000000001 0.30000000000000004 0.30000000000000004 0.6000000000000001 0.4 0.30000000000000004 0.6000000000000001 0 0.4 0.6000000000000001 0.1 0.4 0.6000000000000001 0.2 0.4 0.6000000000000001 0.30000000000000004 0.4 0.6000000000000001 0.4 0.4 0.6000000000000001 0 0 0.7000000000000001 0.1 0 0.7000000000000001 0.2 0 0.7000000000000001 0.30000000000000004 0 0.7000000000000001 0.4 0 0.7000000000000001 0 0.1 0.7000000000000001 0.1 0.1 0.7000000000000001 0.2 0.1 0.7000000000000001 0.30000000000000004 0.1 0.7000000000000001 0.4 0.1 0.7000000000000001 0 0.2 0.7000000000000001 0.1 0.2 0.7000000000000001 0.2 0.2 0.7000000000000001 0.30000000000000004 0.2 0.7000000000000001 0.4 0.2 0.7000000000000001 0 0.30000000000000004 0.7000000000000001 0.1 0.30000000000000004 0.7000000000000001 0.2 0.30000000000000004 0.7000000000000001 0.30000000000000004 0.30000000000000004 0.7000000000000001 0.4 0.30000000000000004 0.7000000000000001 0 0.4 0.7000000000000001 0.1 0.4 0.7000000000000001 0.2 0.4 0.7000000000000001 0.30000000000000004 0.4 0.7000000000000001 0.4 0.4 0.7000000000000001 0 0 0.8 0.1 0 0.8 0.2 0 0.8 0.30000000000000004 0 0.8 0.4 0 0.8 0 0.1 0.8 0.1 0.1 0.8 0.2 0.1 0.8 0.30000000000000004 0.1 0.8 0.4 0.1 0.8 0 0.2 0.8 0.1 0.2 0.8 0.2 0.2 0.8 0.30000000000000004 0.2 0.8 0.4 0.2 0.8 0 0.30000000000000004 0.8 0.1 0.30000000000000004 0.8 0.2 0.30000000000000004 0.8 0.30000000000000004 0.30000000000000004 0.8 0.4 0.30000000000000004 0.8 0 0.4 0.8 0.1 0.4 0.8 0.2 0.4 0.8 0.30000000000000004 0.4 0.8 0.4 0.4 0.8</DataArray></Points><Cells><DataArray type="Int32" Name="connectivity" NumberOfComponents="1" format="ascii">0 1 6 31 0 6 5 31 0 5 30 31 0 30 25 31 0 25 26 31 0 26 1 31 1 2 7 32 1 7 6 32 1 6 31 32 1 31 26 32 1 26 27 32 1 27 2 32 2 3 8 33 2 8 7 33 2 7 32 33 2 32 27 33 2 27 28 33 2 28 3 33 3 4 9 34 3 9 8 34 3 8 33 34 3 33 28 34 3 28 29 34 3 29 4 34 5 6 11 36 5 11 10 36 5 10 35 36 5 35 30 36 5 30 31 36 5 31 6 36 6 7 12 37 6 12 11 37 6 11 36 37 6 36 31 37 6 31 32 37 6 32 7 37 7 8 13 38 7 13 12 38 7 12 37 38 7 37 32 38 7 32 33 38 7 33 8 38 8 9 14 39 8 14 13 39 8 13 38 39 8 38 33 39 8 33 34 39 8 34 9 39 10 11 16 41 10 16 15 41 10 15 40 41 10 40 35 41 10 35 36 41 10 36 11 41 11 12 17 42 11 17 16 42 11 16 41 42 11 41 36 42 11 36 37 42 11 37 12 42 12 13 18 43 12 18 17 43 12 17 42 43 12 42 37 43 12 37 38 43 12 38 13 43 13 14 19 44 13 19 18 44 13 18 43 44 13 43 38 44 13 38 39 44 13 39 14 44 15 16 21 46 15 21 20 46 15 20 45 46 15 45 40 46 15 40 41 46 15 41 16 46 16 17 22 47 16 22 21 47 16 21 46 47 16 46 41 47 16 41 42 47 16 42 17 47 17 18 23 48 17 23 22 48 17 22 47 48 17 47 42 48 17 42 43 48 17 43 18 48 18 19 24 49 18 24 23 49 18 23 48 49 18 48 43 49 18 43 44 49 18 44 19 49 25 26 31 56 25 31 30 56 25 30 55 56 25 55 50 56 25 50 51 56 25 51 26 56 26 27 32 57 26 32 31 57 26 31 56 57 26 56 51 57 26 51 52 57 26 52 27 57 27 28 33 58 27 33 32 58 27 32 57 58 27 57 52 58 27 52 53 58 27 53 28 58 28 29 34 59 28 34 33 59 28 33 58 59 28 58 53 59 28 53 54 59 28 54 29 59 30 31 36 61 30 36 35 61 30 35 60 61 30 60 55 61 30 55 56 61 30 56 31 61 31 32 37 62 31 37 36 62 31 36 61 62 31 61 56 62 31 56 57 62 31 57 32 62 32 33 38 63 32 38 37 63 32 37 62 63 32 62 57 63 32 57 58 63 32 58 33 63 33 34 39 64 33 39 38 64 33 38 63 64 33 63 58 64 33 58 59 64 33 59 34 64 35 36 41 66 35 41 40 66 35 40 65 66 35 65 60 66 35 60 61 66 35 61 36 66 36 37 42 67 36 42 41 67 36 41 66 67 36 66 61 67 36 61 62 67 36 62 37 67 37 38 43 68 37 43 42 68 37 42 67 68 37 67 62 68 37 62 63 68 37 63 38 68 38 39 44 69 38 44 43 69 38 43 68 69 38 68 63 69 38 63 64 69 38 64 39 69 40 41 46 71 40 46 45 71 40 45 70 71 40 70 65 71 40 65 66 71 40 66 41 71 41 42 47 72 41 47 46 72 41 46 71 72 41 71 66 72 41 66 67 72 41 67 42 72 42 43 48 73 42 48 47 73 42 47 72 73 42 72 67 73 42 67 68 73 42 68 43 73 43 44 49 74 43 49 48 74 43 48 73 74 43 73 68 74 43 68 69 74 43 69 44 74 50 51 56 81 50 56 55 81 50 55 80 81 50 80 75 81 50 75 76 81 50 76 51 81 51 52 57 82 51 57 56 82 51 56 81 82 51 81 76 82 51 76 77 82 51 77 52 82 52 53 58 83 52 58 57 83 52 57 82 83 52 82 77 83 52 77 78 83 52 78 53 83 53 54 59 84 53 59 58 84 53 58 83 84 53 83 78 84 53 78 79 84 53 79 54 84 55 56 61 86 55 61 60 86 55 60 85 86 55 85 80 86 55 80 81 86 55 81 56 86 56 57 62 87 56 62 61 87 56 61 86 87 56 86 81 87 56 81 82 87 56 82 57 87 57 58 63 88 57 63 62 88 57 62 87 88 57 87 82 88 57 82 83 88 57 83 58 88 58 59 64 89 58 64 63 89 58 63 88 89 58 88 83 89 58 83 84 89 58 84 59 89 60 61 66 91 60 66 65 91 60 65 90 91 60 90 85 91 60 85 86 91 60 86 61 91 61 62 67 92 61 67 66 92 61 66 91 92 61 91 86 92 61 86 87 92 61 87 62 92 62 63 68 93 62 68 67 93 62 67 92 93 62 92 87 93 62 87 88 93 62 88 63 93 63 64 69 94 63 69 68 94 63 68 93 94 63 93 88 94 63 88 89 94 63 89 64 94 65 66 71 96 65 71 70 96 65 70 95 96 65 95 90 96 65 90 91 96 65 91 66 96 66 67 72 97 66 72 71 97 66 71 96 97 66 96 91 97 66 91 92 97 66 92 67 97 67 68 73 98 67 73 72 98 67 72 97 98 67 97 92 98 67 92 93 98 67 93 68 98 68 69 74 99 68 74 73 99 68 73 98 99 68 98 93 99 68 93 94 99 68 94 69 99 75 76 81 106 75 81 80 106 75 80 105 106 75 105 100 106 75 100 101 106 75 101 76 106 76 77 82 107 76 82 81 107 76 81 106 107 76 106 101 107 76 101 102 107 76 102 77 107 77 78 83 108 77 83 82 108 77 82 107 108 77 107 102 108 77 102 103 108 77 103 78 108 78 79 84 109 78 84 83 109 78 83 108 109 78 108 103 109 78 103 104 109 78 104 79 109 80 81 86 111 80 86 85 111 80 85 110 111 80 110 105 111 80 105 106 111 80 106 81 111 81 82 87 112 81 87 86 112 81 86 111 112 81 111 106 112 81 106 107 112 81 107 82 112 82 83 88 113 82 88 87 113 82 87 112 113 82 112 107 113 82 107 108 113 82 108 83 113 83 84 89 114 83 89 88 114 83 88 113 114 83 113 108 114 83 108 109 114 83 109 84 114 85 86 91 116 85 91 90 116 85 90 115 116 85 115 110 116 85 110 111 116 85 111 86 116 86 87 92 117 86 92 91 117 86 91 116 117 86 116 111 117 86 111 112 117 86 112 87 117 87 88 93 118 87 93 92 118 87 92 117 118 87 117 112 118 87 112 113 118 87 113 88 118 88 89 94 119 88 94 93 119 88 93 118 119 88 118 113 119 88 113 114 119 88 114 89 119 90 91 96 121 90 96 95 121 90 95 120 121 90 120 115 121 90 115 116 121 90 116 91 121 91 92 97 122 91 97 96 122 91 96 121 122 91 121 116 122 91 116 117 122 91 117 92 122 92 93 98 123 92 98 97 123 92 97 122 123 92 122 117 123 92 117 118 123 92 118 93 123 93 94 99 124 93 99 98 124 93 98 123 124 93 123 118 124 93 118 119 124 93 119 94 124 100 101 106 131 100 106 105 131 100 105 130 131 100 130 125 131 100 125 126 131 100 126 101 131 101 102 107 132 101 107 106 132 101 106 131 132 101 131 126 132 101 126 127 132 101 127 102 132 102 103 108 133 102 108 107 133 102 107 132 133 102 132 127 133 102 127 128 133 102 128 103 133 103 104 109 134 103 109 108 134 103 108 133 134 103 133 128 134 103 128 129 134 103 129 104 134 105 106 111 136 105 111 110 136 105 110 135 136 105 135 130 136 105 130 131 136 105 131 106 136 106 107 112 137 106 112 111 137 106 111 136 137 106 136 131 137 106 131 132 137 106 132 107 137 107 108 113 138 107 113 112 138 107 112 137 138 107 137 132 138 107 132 133 138 107 133 108 138 108 109 114 139 108 114 113 139 108 113 138 139 108 138 133 139 108 133 134 139 108 134 109 139 110 111 116 141 110 116 115 141 110 115 140 141 110 140 135 141 110 135 136 141 110 136 111 141 111 112 117 142 111 117 116 142 111 116 141 142 111 141 136 142 111 136 137 142 111 137 112 142 112 113 118 143 112 118 117 143 112 117 142 143 112 142 137 143 112 137 138 143 112 138 113 143 113 114 119 144 113 119 118 144 113 118 143 144 113 143 138 144 113 138 139 144 113 139 114 144 115 116 121 146 115 121 120 146 115 120 145 146 115 145 140 146 115 140 141 146 115 141 116 146 116 117 122 147 116 122 121 147 116 121 146 147 116 146 141 147 116 141 142 147 116 142 117 147 117 118 123 148 117 123 122 148 117 122 147 148 117 147 142 148 117 142 143 148 117 143 118 148 118 119 124 149 118 124 123 149 118 123 148 149 118 148 143 149 118 143 144 149 118 144 119 149 125 126 131 156 125 131 130 156 125 130 155 156 125 155 150 156 125 150 151 156 125 151 126 156 126 127 132 157 126 132 131 157 126 131 156 157 126 156 151 157 126 151 152 157 126 152 127 157 127 128 133 158 127 133 132 158 127 132 157 158 127 157 152 158 127 152 153 158 127 153 128 158 128 129 134 159 128 134 133 159 128 133 158 159 128 158 153 159 128 153 154 159 128 154 129 159 130 131 136 161 130 136 135 161 130 135 160 161 130 160 155 161 130 155 156 161 130 156 131 161 131 132 137 162 131 137 136 162 131 136 161 162 131 161 156 162 131 156 157 162 131 157 132 162 132 133 138 163 132 138 137 163 132 137 162 163 132 162 157 163 132 157 158 163 132 158 133 163 133 134 139 164 133 139 138 164 133 138 163 164 133 163 158 164 133 158 159 164 133 159 134 164 135 136 141 166 135 141 140 166 135 140 165 166 135 165 160 166 135 160 161 166 135 161 136 166 136 137 142 167 136 142 141 167 136 141 166 167 136 166 161 167 136 161 162 167 136 162 137 167 137 138 143 168 137 143 142 168 137 142 167 168 137 167 162 168 137 162 163 168 137 163 138 168 138 139 144 169 138 144 143 169 138 143 168 169 138 168 163 169 138 163 164 169 138 164 139 169 140 141 146 171 140 146 145 171 140 145 170 171 140 170 165 171 140 165 166 171 140 166 141 171 141 142 147 172 141 147 146 172 141 146 171 172 141 171 166 172 141 166 167 172 141 167 142 172 142 143 148 173 142 148 147 173 142 147 172 173 142 172 167 173 142 167 168 173 142 168 143 173 143 144 149 174 143 149 148 174 143 148 173 174 143 173 168 174 143 168 169 174 143 169 144 174 150 151 156 181 150 156 155 181 150 155 180 181 150 180 175 181 150 175 176 181 150 176 151 181 151 152 157 182 151 157 156 182 151 156 181 182 151 181 176 182 151 176 177 182 151 177 152 182 152 153 158 183 152 158 157 183 152 157 182 183 152 182 177 183 152 177 178 183 152 178 153 183 153 154 159 184 153 159 158 184 153 158 183 184 153 183 178 184 153 178 179 184 153 179 154 184 155 156 161 186 155 161 160 186 155 160 185 186 155 185 180 186 155 180 181 186 155 181 156 186 156 157 162 187 156 162 161 187 156 161 186 187 156 186 181 187 156 181 182 187 156 182 157 187 157 158 163 188 157 163 162 188 157 162 187 188 157 187 182 188 157 182 183 188 157 183 158 188 158 159 164 189 158 164 163 189 158 163 188 189 158 188 183 189 158 183 184 189 158 184 159 189 160 161 166 191 160 166 165 191 160 165 190 191 160 190 185 191 160 185 186 191 160 186 161 191 161 162 167 192 161 167 166 192 161 166 191 192 161 191 186 192 161 186 187 192 161 187 162 192 162 163 168 193 162 168 167 193 162 167 192 193 162 192 187 193 162 187 188 193 162 188 163 193 163 164 169 194 163 169 168 194 163 168 193 194 163 193 188 194 163 188 189 194 163 189 164 194 165 166 171 196 165 171 170 196 165 170 195 196 165 195 190 196 165 190 191 196 165 191 166 196 166 167 172 197 166 172 171 197 166 171 196 197 166 196 191 197 166 191 192 197 166 192 167 197 167 168 173 198 167 173 172 198 167 172 197 198 167 197 192 198 167 192 193 198 167 193 168 198 168 169 174 199 168 174 173 199 168 173 198 199 168 198 193 199 168 193 194 199 168 194 169 199 175 176 181 206 175 181 180 206 175 180 205 206 175 205 200 206 175 200 201 206 175 201 176 206 176 177 182 207 176 182 181 207 176 181 206 207 176 206 201 207 176 201 202 207 176 202 177 207 177 178 183 208 177 183 182 208 177 182 207 208 177 207 202 208 177 202 203 208 177 203 178 208 178 179 184 209 178 184 183 209 178 183 208 209 178 208 203 209 178 203 204 209 178 204 179 209 180 181 186 211 180 186 185 211 180 185 210 211 180 210 205 211 180 205 206 211 180 206 181 211 181 182 187 212 181 187 186 212 181 186 211 212 181 211 206 212 181 206 207 212 181 207 182 212 182 183 188 213 182 188 187 213 182 187 212 213 182 212 207 213 182 207 208 213 182 208 183 213 183 184 189 214 183 189 188 214 183 188 213 214 183 213 208 214 183 208 209 214 183 209 184 214 185 186 191 216 185 191 190 216 185 190 215 216 185 215 210 216 185 210 211 216 185 211 186 216 186 187 192 217 186 192 191 217 186 191 216 217 186 216 211 217 186 211 212 217 186 212 187 217 187 188 193 218 187 193 192 218 187 192 217 218 187 217 212 218 187 212 213 218 187 213 188 218 188 189 194 219 188 194 193 219 188 193 218 219 188 218 213 219 188 213 214 219 188 214 189 219 190 191 196 221 190 196 195 221 190 195 220 221 190 220 215 221 190 215 216 221 190 216 191 221 191 192 197 222 191 197 196 222 191 196 221 222 191 221 216 222 191 216 217 222 191 217 192 222 192 193 198 223 192 198 197 223 192 197 222 223 192 222 217 223 192 217 218 223 192 218 193 223 193 194 199 224 193 199 198 224 193 198 223 224 193 223 218 224 193 218 219 224 193 219 194 224</DataArray><DataArray type="Int32" Name="offsets" NumberOfComponents="1" format="ascii">4 8 12 16 20 24 28 32 36 40 44 48 52 56 60 64 68 72 76 80 84 88 92 96 100 104 108 112 116 120 124 128 132 136 140 144 148 152 156 160 164 168 172 176 180 184 188 192 196 200 204 208 212 216 220 224 228 232 236 240 244 248 252 256 260 264 268 272 276 280 284 288 292 296 300 304 308 312 316 320 324 328 332 336 340 344 348 352 356 360 364 368 372 376 380 384 388 392 396 400 404 408 412 416 420 424 428 432 436 440 444 448 452 456 460 464 468 472 476 480 484 488 492 496 500 504 508 512 516 520 524 528 532 536 540 544 548 552 556 560 564 568 572 576 580 584 588 592 596 600 604 608 612 616 620 624 628 632 636 640 644 648 652 656 660 664 668 672 676 680 684 688 692 696 700 704 708 712 716 720 724 728 732 736 740 744 748 752 756 760 764 768 772 776 780 784 788 792 796 800 804 808 812 816 820 824 828 832 836 840 844 848 852 856 860 864 868 872 876 880 884 888 892 896 900 904 908 912 916 920 924 928 932 936 940 944 948 952 956 960 964 968 972 976 980 984 988 992 996 1000 1004 1008 1012 1016 1020 1024 1028 1032 1036 1040 1044 1048 1052 1056 1060 1064 1068 1072 1076 1080 1084 1088 1092 1096 1100 1104 1108 1112 1116 1120 1124 1128 1132 1136 1140 1144 1148 1152 1156 1160 1164 1168 1172 1176 1180 1184 1188 1192 1196 1200 1204 1208 1212 1216 1220 1224 1228 1232 1236 1240 1244 1248 1252 1256 1260 1264 1268 1272 1276 1280 1284 1288 1292 1296 1300 1304 1308 1312 1316 1320 1324 1328 1332 1336 1340 1344 1348 1352 1356 1360 1364 1368 1372 1376 1380 1384 1388 1392 1396 1400 1404 1408 1412 1416 1420 1424 1428 1432 1436 1440 1444 1448 1452 1456 1460 1464 1468 1472 1476 1480 1484 1488 1492 1496 1500 1504 1508 1512 1516 1520 1524 1528 1532 1536 1540 1544 1548 1552 1556 1560 1564 1568 1572 1576 1580 1584 1588 1592 1596 1600 1604 1608 1612 1616 1620 1624 1628 1632 1636 1640 1644 1648 1652 1656 1660 1664 1668 1672 1676 1680 1684 1688 1692 1696 1700 1704 1708 1712 1716 1720 1724 1728 1732 1736 1740 1744 1748 1752 1756 1760 1764 1768 1772 1776 1780 1784 1788 1792 1796 1800 1804 1808 1812 1816 1820 1824 1828 1832 1836 1840 1844 1848 1852 1856 1860 1864 1868 1872 1876 1880 1884 1888 1892 1896 1900 1904 1908 1912 1916 1920 1924 1928 1932 1936 1940 1944 1948 1952 1956 1960 1964 1968 1972 1976 1980 1984 1988 1992 1996 2000 2004 2008 2012 2016 2020 2024 2028 2032 2036 2040 2044 2048 2052 2056 2060 2064 2068 2072 2076 2080 2084 2088 2092 2096 2100 2104 2108 2112 2116 2120 2124 2128 2132 2136 2140 2144 2148 2152 2156 2160 2164 2168 2172 2176 2180 2184 2188 2192 2196 2200 2204 2208 2212 2216 2220 2224 2228 2232 2236 2240 2244 2248 2252 2256 2260 2264 2268 2272 2276 2280 2284 2288 2292 2296 2300 2304 2308 2312 2316 2320 2324 2328 2332 2336 2340 2344 2348 2352 2356 2360 2364 2368 2372 2376 2380 2384 2388 2392 2396 2400 2404 2408 2412 2416 2420 2424 2428 2432 2436 2440 2444 2448 2452 2456 2460 2464 2468 2472 2476 2480 2484 2488 2492 2496 2500 2504 2508 2512 2516 2520 2524 2528 2532 2536 2540 2544 2548 2552 2556 2560 2564 2568 2572 2576 2580 2584 2588 2592 2596 2600 2604 2608 2612 2616 2620 2624 2628 2632 2636 2640 2644 2648 2652 2656 2660 2664 2668 2672 2676 2680 2684 2688 2692 2696 2700 2704 2708 2712 2716 2720 2724 2728 2732 2736 2740 2744 2748 2752 2756 2760 2764 2768 2772 2776 2780 2784 2788 2792 2796 2800 2804 2808 2812 2816 2820 2824 2828 2832 2836 2840 2844 2848 2852 2856 2860 2864 2868 2872 2876 2880 2884 2888 2892 2896 2900 2904 2908 2912 2916 2920 2924 2928 2932 2936 2940 2944 2948 2952 2956 2960 2964 2968 2972 2976 2980 2984 2988 2992 2996 3000 3004 3008 3012 3016 3020 3024 3028 3032 3036 3040 3044 3048 3052 3056 3060 3064 3068 3072</DataArray><DataArray type="UInt8" Name="types" NumberOfComponents="1" format="ascii">10 10 10 10 10 10 10 10 10 10 10 10 10 10 10 10 10 10 10 10 10 10 10 10 10 10 10 10 10 10 10 10 10 10 10 10 10 10 10 10 10 10 10 10 10 10 10 10 10 10 10 10 10 10 10 10 10 10 10 10 10 10 10 10 10 10 10 10 10 10 10 10 10 10 10 10 10 10 10 10 10 10 10 10 10 10 10 10 10 10 10 10 10 10 10 10 10 10 10 10 10 10 10 10 10 10 10 10 10 10 10 10 10 10 10 10 10 10 10 10 10 10 10 10 10 10 10 10 10 10 10 10 10 10 10 10 10 10 10 10 10 10 10 10 10 10 10 10 10 10 10 10 10 10 10 10 10 10 10 10 10 10 10 10 10 10 10 10 10 10 10 10 10 10 10 10 10 10 10 10 10 10 10 10 10 10 10 10 10 10 10 10 10 10 10 10 10 10 10 10 10 10 10 10 10 10 10 10 10 10 10 10 10 10 10 10 10 10 10 10 10 10 10 10 10 10 10 10 10 10 10 10 10 10 10 10 10 10 10 10 10 10 10 10 10 10 10 10 10 10 10 10 10 10 10 10 10 10 10 10 10 10 10 10 10 10 10 10 10 10 10 10 10 10 10 10 10 10 10 10 10 10 10 10 10 10 10 10 10 10 10 10 10 10 10 10 10 10 10 10 10 10 10 10 10 10 10 10 10 10 10 10 10 10 10 10 10 10 10 10 10 10 10 10 10 10 10 10 10 10 10 10 10 10 10 10 10 10 10 10 10 10 10 10 10 10 10 10 10 10 10 10 10 10 10 10 10 10 10 10 10 10 10 10 10 10 10 10 10 10 10 10 10 10 10 10 10 10 10 10 10 10 10 10 10 10 10 10 10 10 10 10 10 10 10 10 10 10 10 10 10 10 10 10 10 10 10 10 10 10 10 10 10 10 10 10 10 10 10 10 10 10 10 10 10 10 10 10 10 10 10 10 10 10 10 10 10 10 10 10 10 10 10 10 10 10 10 10 10 10 10 10 10 10 10 10 10 10 10 10 10 10 10 10 10 10 10 10 10 10 10 10 10 10 10 10 10 10 10 10 10 10 10 10 10 10 10 10 10 10 10 10 10 10 10 10 10 10 10 10 10 10 10 10 10 10 10 10 10 10 10 10 10 10 10 10 10 10 10 10 10 10 10 10 10 10 10 10 10 10 10 10 10 10 10 10 10 10 10 10 10 10 10 10 10 10 10 10 10 10 10 10 10 10 10 10 10 10 10 10 10 10 10 10 10 10 10 10 10 10 10 10 10 10 10 10 10 10 10 10 10 10 10 10 10 10 10 10 10 10 10 10 10 10 10 10 10 10 10 10 10 10 10 10 10 10 10 10 10 10 10 10 10 10 10 10 10 10 10 10 10 10 10 10 10 10 10 10 10 10 10 10 10 10 10 10 10 10 10 10 10 10 10 10 10 10 10 10 10 10 10 10 10 10 10 10 10 10 10 10 10 10 10 10 10 10 10 10 10 10 10 10 10 10 10 10 10 10 10 10 10 10 10 10 10 10 10 10 10 10 10 10 10 10 10 10 10 10 10 10 10 10 10 10 10 10 10 10 10 10 10 10 10 10 10 10 10 10 10 10 10 10 10 10 10 10 10 10 10 10 10 10 10 10 10 10 10 10 10 10 10 10 10 10 10 10 10 10 10 10 10 10 10 10 10 10 10 10 10 10 10 10 10 10 10 10 10 10</DataArray></Cells><CellData><DataArray type="Int32" Name="material" NumberOfComponents="1" format="ascii">1 1 1 1 1 1 1 1 1 1 1 1 1 1 1 1 1 1 1 1 1 1 1 1 1 1 1 1 1 1 1 1 1 1 1 1 1 1 1 1 1 1 1 1 1 1 1 1 1 1 1 1 1 1 1 1 1 1 1 1 1 1 1 1 1 1 1 1 1 1 1 1 1 1 1 1 1 1 1 1 1 1 1 1 1 1 1 1 1 1 1 1 1 1 1 1 1 1 1 1 1 1 1 1 1 1 1 1 1 1 1 1 1 1 1 1 1 1 1 1 1 1 1 1 1 1 1 1 1 1 1 1 1 1 1 1 1 1 1 1 1 1 1 1 1 1 1 1 1 1 1 1 1 1 1 1 1 1 1 1 1 1 1 1 1 1 1 1 1 1 1 1 1 1 1 1 1 1 1 1 1 1 1 1 1 1 1 1 1 1 1 1 1 1 1 1 1 1 1 1 1 1 1 1 1 1 1 1 1 1 1 1 1 1 1 1 1 1 1 1 1 1 1 1 1 1 1 1 1 1 1 1 1 1 1 1 1 1 1 1 1 1 1 1 1 1 1 1 1 1 1 1 1 1 1 1 1 1 1 1 1 1 1 1 1 1 1 1 1 1 1 1 1 1 1 1 1 1 1 1 1 1 1 1 1 1 1 1 2 2 2 2 2 2 2 2 2 2 2 2 2 2 2 2 2 2 2 2 2 2 2 2 2 2 2 2 2 2 2 2 2 2 2 2 2 2 2 2 2 2 2 2 2 2 2 2 2 2 2 2 2 2 2 2 2 2 2 2 2 2 2 2 2 2 2 2 2 2 2 2 2 2 2 2 2 2 2 2 2 2 2 2 2 2 2 2 2 2 2 2 2 2 2 2 2 2 2 2 2 2 2 2 2 2 2 2 2 2 2 2 2 2 2 2 2 2 2 2 2 2 2 2 2 2 2 2 2 2 2 2 2 2 2 2 2 2 2 2 2 2 2 2 2 2 2 2 2 2 2 2 2 2 2 2 2 2 2 2 2 2 2 2 2 2 2 2 2 2 2 2 2 2 2 2 2 2 2 2 2 2 2 2 2 2 2 2 2 2 2 2 0 0 0 0 0 0 0 0 0 0 0 0 0 0 0 0 0 0 0 0 0 0 0 0 0 0 0 0 0 0 0 0 0 0 0 0 0 0 0 0 0 0 0 0 0 0 0 0 0 0 0 0 0 0 0 0 0 0 0 0 0 0 0 0 0 0 0 0 0 0 0 0 0 0 0 0 0 0 0 0 0 0 0 0 0 0 0 0 0 0 0 0 0 0 0 0 0 0 0 0 0 0 0 0 0 0 0 0 0 0 0 0 0 0 0 0 0 0 0 0 0 0 0 0 0 0 0 0 0 0 0 0 0 0 0 0 0 0 0 0 0 0 0 0 0 0 0 0 0 0 0 0 0 0 0 0 0 0 0 0 0 0 0 0 0 0 0 0 0 0 0 0 0 0 0 0 0 0 0 0 0 0 0 0 0 0 0 0 0 0 0 0 0 0 0 0 0 0 0 0 0 0 0 0 0 0 0 0 0 0 0 0 0 0 0 0 0 0 0 0 0 0 0 0 0 0 0 0 0 0 0 0 0 0 0 0 0 0 0 0 0 0 0 0 0 0 0 0 0 0 0 0 0 0 0 0 0 0 0 0 0 0 0 0 0 0 0 0 0 0 0 0 0 0 0 0 0 0 0 0 0 0 0 0 0 0 0 0</DataArray><DataArray type="Float64" Name="thickness_um" NumberOfComponents="1" format="ascii">NaN NaN NaN NaN NaN NaN NaN NaN NaN NaN NaN NaN NaN NaN NaN NaN NaN NaN NaN NaN NaN NaN NaN NaN NaN NaN NaN NaN NaN NaN NaN NaN NaN NaN NaN NaN NaN NaN NaN NaN NaN NaN NaN NaN NaN NaN NaN NaN NaN NaN NaN NaN NaN NaN NaN NaN NaN NaN NaN NaN NaN NaN NaN NaN NaN NaN NaN NaN NaN NaN NaN NaN NaN NaN NaN NaN NaN NaN NaN NaN NaN NaN NaN NaN NaN NaN NaN NaN NaN NaN NaN NaN NaN NaN NaN NaN NaN NaN NaN NaN NaN NaN NaN NaN NaN NaN NaN NaN NaN NaN NaN NaN NaN NaN NaN NaN NaN NaN NaN NaN NaN NaN NaN NaN NaN NaN NaN NaN NaN NaN NaN NaN NaN NaN NaN NaN NaN NaN NaN NaN NaN NaN NaN NaN NaN NaN NaN NaN NaN NaN NaN NaN NaN NaN NaN NaN NaN NaN NaN NaN NaN NaN NaN NaN NaN NaN NaN NaN NaN NaN NaN NaN NaN NaN NaN NaN NaN NaN NaN NaN NaN NaN NaN NaN NaN NaN NaN NaN NaN NaN NaN NaN NaN NaN NaN NaN NaN NaN NaN NaN NaN NaN NaN NaN NaN NaN NaN NaN NaN NaN NaN NaN NaN NaN NaN NaN NaN NaN NaN NaN NaN NaN NaN NaN NaN NaN NaN NaN NaN NaN NaN NaN NaN NaN NaN NaN NaN NaN NaN NaN NaN NaN NaN NaN NaN NaN NaN NaN NaN NaN NaN NaN NaN NaN NaN NaN NaN NaN NaN NaN NaN NaN NaN NaN NaN NaN NaN NaN NaN NaN NaN NaN NaN NaN NaN NaN NaN NaN NaN NaN NaN NaN NaN NaN NaN NaN NaN NaN 0.2 0.2 0.2 0.2 0.2 0.2 0.2 0.2 0.2 0.2 0.2 0.2 0.2 0.2 0.2 0.2 0.2 0.2 0.2 0.2 0.2 0.2 0.2 0.2 0.2 0.2 0.2 0.2 0.2 0.2 0.2 0.2 0.2 0.2 0.2 0.2 0.2 0.2 0.2 0.2 0.2 0.2 0.2 0.2 0.2 0.2 0.2 0.2 0.2 0.2 0.2 0.2 0.2 0.2 0.2 0.2 0.2 0.2 0.2 0.2 0.2 0.2 0.2 0.2 0.2 0.2 0.2 0.2 0.2 0.2 0.2 0.2 0.2 0.2 0.2 0.2 0.2 0.2 0.2 0.2 0.2 0.2 0.2 0.2 0.2 0.2 0.2 0.2 0.2 0.2 0.2 0.2 0.2 0.2 0.2 0.2 0.2 0.2 0.2 0.2 0.2 0.2 0.2 0.2 0.2 0.2 0.2 0.2 0.2 0.2 0.2 0.2 0.2 0.2 0.2 0.2 0.2 0.2 0.2 0.2 0.2 0.2 0.2 0.2 0.2 0.2 0.2 0.2 0.2 0.2 0.2 0.2 0.2 0.2 0.2 0.2 0.2 0.2 0.2 0.2 0.2 0.2 0.2 0.2 0.2 0.2 0.2 0.2 0.2 0.2 0.2 0.2 0.2 0.2 0.2 0.2 0.2 0.2 0.2 0.2 0.2 0.2 0.2 0.2 0.2 0.2 0.2 0.2 0.2 0.2 0.2 0.2 0.2 0.2 0.2 0.2 0.2 0.2 0.2 0.2 0.2 0.2 0.2 0.2 0.2 0.2 0.2 0.2 0.2 0.2 0.2 0.2 NaN NaN NaN NaN NaN NaN NaN NaN NaN NaN NaN NaN NaN NaN NaN NaN NaN NaN NaN NaN NaN NaN NaN NaN NaN NaN NaN NaN NaN NaN NaN NaN NaN NaN NaN NaN NaN NaN NaN NaN NaN NaN NaN NaN NaN NaN NaN NaN NaN NaN NaN NaN NaN NaN NaN NaN NaN NaN NaN NaN NaN NaN NaN NaN NaN NaN NaN NaN NaN NaN NaN NaN NaN NaN NaN NaN NaN NaN NaN NaN NaN NaN NaN NaN NaN NaN NaN NaN NaN NaN NaN NaN NaN NaN NaN NaN NaN NaN NaN NaN NaN NaN NaN NaN NaN NaN NaN NaN NaN NaN NaN NaN NaN NaN NaN NaN NaN NaN NaN NaN NaN NaN NaN NaN NaN NaN NaN NaN NaN NaN NaN NaN NaN NaN NaN NaN NaN NaN NaN NaN NaN NaN NaN NaN NaN NaN NaN NaN NaN NaN NaN NaN NaN NaN NaN NaN NaN NaN NaN NaN NaN NaN NaN NaN NaN NaN NaN NaN NaN NaN NaN NaN NaN NaN NaN NaN NaN NaN NaN NaN NaN NaN NaN NaN NaN NaN NaN NaN NaN NaN NaN NaN NaN NaN NaN NaN NaN NaN NaN NaN NaN NaN NaN NaN NaN NaN NaN NaN NaN NaN NaN NaN NaN NaN NaN NaN NaN NaN NaN NaN NaN NaN NaN NaN NaN NaN NaN NaN NaN NaN NaN NaN NaN NaN NaN NaN NaN NaN NaN NaN NaN NaN NaN NaN NaN NaN NaN NaN NaN NaN NaN NaN NaN NaN NaN NaN NaN NaN NaN NaN NaN NaN NaN NaN NaN NaN NaN NaN NaN NaN NaN NaN NaN NaN NaN NaN NaN NaN NaN NaN NaN NaN NaN NaN NaN NaN NaN NaN</DataArray></CellData></Piece></UnstructuredGrid></VTKFile>